<svg xmlns="http://www.w3.org/2000/svg" focusable="false" viewBox="0 0 32 32">
	<symbol id="icon-arrow-text-link15x" viewBox="0 0 55 32">
		<path d="M55.151 15.262l-14.788-14.941c-0.188-0.192-0.474-0.321-0.727-0.321-0.255 0-0.541 0.13-0.731 0.321l-1.587 1.603c-0.192 0.192-0.318 0.481-0.318 0.739 0 0.255 0.126 0.545 0.318 0.737l10.364 10.472h-47.003c-0.373 0-0.678 0.307-0.678 0.688v2.88c0 0.381 0.305 0.69 0.678 0.69h47.001l-10.362 10.472c-0.192 0.189-0.318 0.479-0.318 0.734 0 0.29 0.126 0.547 0.318 0.739l1.587 1.603c0.19 0.194 0.476 0.321 0.731 0.321 0.253 0 0.539-0.128 0.727-0.321l14.788-14.941c0.19-0.192 0.316-0.481 0.316-0.737s-0.126-0.545-0.316-0.739z"></path>
	</symbol>
	<symbol id="icon-next15x" viewBox="0 0 32 32">
		<path fill="" style="" d="M16.958 26.375l9.437-9.437c0.25-0.25 0.375-0.584 0.375-0.938s-0.125-0.688-0.375-0.938l-9.437-9.437c-0.25-0.25-0.584-0.375-0.938-0.375s-0.688 0.125-0.937 0.375l-1.896 1.895c-0.25 0.25-0.376 0.584-0.376 0.938s0.126 0.688 0.376 0.938l3.938 3.937h-10.459c-0.729 0-1.333 0.605-1.333 1.334v2.667c0 0.729 0.604 1.334 1.333 1.334h10.459l-3.938 3.937c-0.25 0.25-0.396 0.584-0.396 0.938s0.145 0.688 0.396 0.938l1.896 1.895c0.249 0.25 0.582 0.375 0.936 0.375s0.688-0.125 0.938-0.375zM0 16c0-8.834 7.166-16 15.999-16s16.001 7.166 16.001 16c0 8.834-7.167 16-16.001 16s-15.999-7.166-15.999-16z"></path>
	</symbol>
	<symbol id="icon-prev15x" viewBox="0 0 32 32">
		<path fill="" style="" d="M15.042 5.625l-9.437 9.437c-0.25 0.25-0.375 0.584-0.375 0.938s0.125 0.688 0.375 0.938l9.437 9.437c0.25 0.25 0.584 0.375 0.938 0.375s0.687-0.125 0.937-0.375l1.896-1.895c0.25-0.25 0.376-0.584 0.376-0.938s-0.126-0.688-0.376-0.938l-3.938-3.937h10.459c0.729 0 1.334-0.605 1.334-1.334v-2.667c0-0.729-0.605-1.334-1.334-1.334h-10.459l3.938-3.937c0.25-0.25 0.396-0.584 0.396-0.938s-0.145-0.688-0.396-0.938l-1.896-1.895c-0.249-0.25-0.582-0.375-0.937-0.375s-0.688 0.125-0.938 0.375zM32 16c0 8.834-7.166 16-15.999 16s-16.001-7.166-16.001-16c0-8.834 7.167-16 16.001-16s15.999 7.166 15.999 16z"></path>
	</symbol>
	<symbol id="icon-member-login" viewBox="0 0 32 32">
		<title>Member Login</title>
		<path stroke-linejoin="miter" stroke-linecap="butt" stroke-miterlimit="4" stroke-width="2.0004" d="M21.333 11.429c0 2.946-2.388 5.333-5.333 5.333s-5.333-2.388-5.333-5.333c0-2.946 2.388-5.333 5.333-5.333s5.333 2.388 5.333 5.333z"></path>
		<path stroke-linejoin="miter" stroke-linecap="square" stroke-miterlimit="4" stroke-width="2.0004" d="M5.267 24.667c4.108-3.238 7.94-4.858 11.495-4.858s7.111 1.619 10.667 4.858c-4.339 3.297-8.033 4.945-11.081 4.945s-6.742-1.648-11.081-4.945z"></path>
		<path fill="none" stroke-linejoin="miter" stroke-linecap="butt" stroke-miterlimit="4" stroke-width="2.0004" d="M30.476 16c0 7.995-6.481 14.476-14.476 14.476s-14.476-6.481-14.476-14.476c0-7.995 6.481-14.476 14.476-14.476s14.476 6.481 14.476 14.476z"></path>
	</symbol>
	<symbol id="icon-fb15x" viewBox="0 0 17 32">
		<path fill="#fff" style="fill:var(--color1, #fff);" d="M16.016 5.116h-2.911c-2.281 0-2.705 1.094-2.705 2.668v3.504h5.43l-0.722 5.487h-4.708v14.069h-5.673v-14.069h-4.727v-5.487h4.727v-4.041c0-4.69 2.873-7.248 7.061-7.248 2.002 0 3.727 0.149 4.228 0.223v4.894z"></path>
	</symbol>
	<symbol id="icon-fb-head15x" viewBox="0 0 17 32">
		<path fill="#000" style="fill:var(--color1, #000);" d="M16.016 5.116h-2.911c-2.281 0-2.705 1.094-2.705 2.668v3.504h5.43l-0.722 5.487h-4.708v14.069h-5.673v-14.069h-4.727v-5.487h4.727v-4.041c0-4.69 2.873-7.248 7.061-7.248 2.002 0 3.727 0.149 4.228 0.223v4.894z"></path>
	</symbol>
	<symbol id="icon-flicker15x" viewBox="0 0 77 32">
		<path fill="#fff" style="fill:var(--color1, #fff);" d="M60.8 0c-8.832 0-16 7.172-16 15.998 0 8.831 7.168 16.002 16 16.002s16-7.172 16-16.003c0-8.826-7.168-15.998-16-15.998zM16.003 0c-8.831 0-16.003 7.172-16.003 15.998 0 8.831 7.172 16.002 16.003 16.002s15.997-7.172 15.997-16.003c0-8.826-7.167-15.998-15.998-15.998z"></path>
	</symbol>
	<symbol id="icon-instagram15x" viewBox="0 0 32 32">
		<path fill="#fff" style="fill:var(--color1, #fff);" d="M23.656 9.037c-1.025 0-1.848-0.823-1.848-1.848 0-1.023 0.823-1.847 1.848-1.847 1.024 0 1.848 0.824 1.848 1.847 0 1.025-0.824 1.848-1.848 1.848zM15.423 10.283c-2.831 0-5.14 2.309-5.14 5.14s2.309 5.141 5.14 5.141c2.831 0 5.141-2.311 5.141-5.141s-2.311-5.14-5.141-5.14zM15.423 23.335c-4.377 0-7.911-3.535-7.911-7.912s3.533-7.912 7.911-7.912c4.377 0 7.912 3.535 7.912 7.912s-3.535 7.912-7.912 7.912zM6.327 3.395c-0.703 0.281-1.225 0.621-1.767 1.165-0.543 0.541-0.884 1.063-1.165 1.767-0.804 2.028-0.623 6.848-0.623 9.096 0 2.249-0.181 7.068 0.623 9.096 0.281 0.704 0.623 1.225 1.165 1.768 0.541 0.543 1.064 0.884 1.767 1.165 2.028 0.803 6.848 0.621 9.096 0.621 2.249 0 7.068 0.181 9.096-0.621 0.704-0.281 1.225-0.623 1.768-1.165s0.884-1.064 1.165-1.768c0.803-2.028 0.621-6.847 0.621-9.096 0-2.248 0.181-7.068-0.621-9.096-0.281-0.704-0.623-1.225-1.165-1.767-0.543-0.544-1.064-0.884-1.768-1.165-2.028-0.804-6.847-0.623-9.096-0.623-2.248 0-7.068-0.181-9.096 0.623zM30.744 21.788c-0.12 2.471-0.681 4.66-2.489 6.467-1.807 1.808-3.996 2.368-6.465 2.489-2.129 0.12-4.237 0.1-6.367 0.1-2.128 0-4.237 0.020-6.365-0.1-2.471-0.121-4.659-0.681-6.467-2.489-1.807-1.807-2.368-3.996-2.489-6.467-0.12-2.128-0.1-4.236-0.1-6.365s-0.020-4.237 0.1-6.365c0.121-2.471 0.683-4.659 2.489-6.467 1.808-1.807 3.996-2.368 6.467-2.489 2.128-0.12 4.237-0.1 6.365-0.1 2.129 0 4.237-0.020 6.367 0.1 2.469 0.121 4.659 0.683 6.465 2.489 1.808 1.808 2.369 3.996 2.489 6.467 0.12 2.128 0.101 4.236 0.101 6.365s0.019 4.237-0.101 6.365z"></path>
	</symbol>
	<symbol id="icon-linkedin15x" viewBox="0 0 33 32">
		<path fill="#fff" style="fill:var(--color1, #fff);" d="M32.185 30.76h-6.894v-11.105c0-2.787-1.006-4.693-3.499-4.693-1.907 0-3.037 1.276-3.542 2.513-0.167 0.462-0.23 1.070-0.23 1.697v11.588h-6.894c0.085-18.816 0-20.765 0-20.765h6.894v3.016h-0.042c0.902-1.423 2.535-3.498 6.265-3.498 4.548 0 7.942 2.975 7.942 9.344v11.903zM0.398 30.76h6.915v-20.765h-6.915v20.765zM3.857 7.167h-0.043c-2.325 0-3.814-1.593-3.814-3.583 0-2.033 1.55-3.584 3.897-3.584 2.368 0 3.836 1.551 3.855 3.584 0.022 1.99-1.487 3.583-3.896 3.583v0z"></path>
	</symbol>
	<symbol id="icon-twitter15x" viewBox="0 0 38 32">
		<path fill="#fff" style="fill:var(--color1, #fff);" d="M34.073 7.686c0.024 0.338 0.024 0.675 0.024 1.013 0 10.288-7.83 22.144-22.144 22.144-4.411 0-8.507-1.277-11.952-3.493 0.626 0.070 1.229 0.096 1.878 0.096 3.638 0 6.989-1.229 9.662-3.326-3.421-0.072-6.288-2.312-7.277-5.397 0.482 0.072 0.965 0.12 1.47 0.12 0.699 0 1.398-0.096 2.048-0.266-3.566-0.722-6.242-3.854-6.242-7.638v-0.096c1.037 0.578 2.242 0.941 3.518 0.987-2.096-1.397-3.469-3.782-3.469-6.482 0-1.445 0.384-2.771 1.059-3.928 3.832 4.723 9.59 7.808 16.050 8.146-0.122-0.579-0.194-1.181-0.194-1.782 0-4.291 3.47-7.784 7.784-7.784 2.24 0 4.264 0.939 5.686 2.458 1.758-0.338 3.445-0.989 4.939-1.88-0.578 1.808-1.808 3.326-3.421 4.29 1.566-0.168 3.083-0.603 4.482-1.205-1.061 1.542-2.386 2.915-3.904 4.024z"></path>
	</symbol>
	<symbol id="icon-twitter-head15x" viewBox="0 0 38 32">
		<path fill="#000" style="fill:var(--color1, #000);" d="M34.073 7.686c0.024 0.338 0.024 0.675 0.024 1.013 0 10.288-7.83 22.144-22.144 22.144-4.411 0-8.507-1.277-11.952-3.493 0.626 0.070 1.229 0.096 1.878 0.096 3.638 0 6.989-1.229 9.662-3.326-3.421-0.072-6.288-2.312-7.277-5.397 0.482 0.072 0.965 0.12 1.47 0.12 0.699 0 1.398-0.096 2.048-0.266-3.566-0.722-6.242-3.854-6.242-7.638v-0.096c1.037 0.578 2.242 0.941 3.518 0.987-2.096-1.397-3.469-3.782-3.469-6.482 0-1.445 0.384-2.771 1.059-3.928 3.832 4.723 9.59 7.808 16.050 8.146-0.122-0.579-0.194-1.181-0.194-1.782 0-4.291 3.47-7.784 7.784-7.784 2.24 0 4.264 0.939 5.686 2.458 1.758-0.338 3.445-0.989 4.939-1.88-0.578 1.808-1.808 3.326-3.421 4.29 1.566-0.168 3.083-0.603 4.482-1.205-1.061 1.542-2.386 2.915-3.904 4.024z"></path>
	</symbol>
	<symbol id="icon-vimeo15x" viewBox="0 0 38 32">
		<path fill="#fff" style="fill:var(--color1, #fff);" d="M32.807 0.007c-5.329-0.168-8.927 2.731-10.798 8.699 0.97-0.401 1.903-0.633 2.838-0.633 1.937 0 2.803 1.064 2.562 3.198-0.106 1.266-0.97 3.134-2.562 5.566-1.625 2.467-2.838 3.667-3.633 3.667-1.039 0-1.939-1.868-2.838-5.632-0.276-1.135-0.795-3.935-1.558-8.5-0.692-4.198-2.525-6.165-5.538-5.9-1.245 0.135-3.183 1.202-5.673 3.335-1.868 1.565-3.704 3.198-5.607 4.798l1.799 2.235c1.73-1.135 2.735-1.735 3.010-1.735 1.317 0 2.562 2.001 3.704 5.966 1.036 3.667 2.077 7.298 3.114 10.965 1.558 3.966 3.426 5.964 5.676 5.964 3.599 0 8.029-3.266 13.254-9.799 5.053-6.265 7.684-11.195 7.822-14.796 0.241-4.833-1.627-7.265-5.572-7.398z"></path>
	</symbol>
	<symbol id="icon-youtube15x" viewBox="0 0 45 32">
		<path fill="#fff" style="fill:var(--color1, #fff);" d="M30.311 15.523l-12.276-6.417v12.76l12.276-6.343zM38.631 0.458c0.888 0.101 2.841 0.101 4.564 1.927 0 0 1.396 1.371 1.802 4.515 0.482 3.677 0.457 7.355 0.457 7.355v3.451c0 0 0.025 3.677-0.457 7.355-0.406 3.121-1.802 4.515-1.802 4.515-1.723 1.8-3.677 1.8-4.564 1.903 0 0-6.341 0.482-15.904 0.482-11.82-0.103-15.448-0.458-15.448-0.458-1.014-0.177-3.298-0.126-5.021-1.927 0 0-1.396-1.395-1.802-4.515-0.482-3.678-0.457-7.355-0.457-7.355v-3.451c0 0-0.025-3.678 0.457-7.355 0.406-3.144 1.802-4.515 1.802-4.515 1.723-1.826 3.677-1.826 4.564-1.927 0 0 6.341-0.458 15.904-0.458s15.904 0.458 15.904 0.458v0z"></path>
	</symbol>
	<symbol id="icon-neca-earn" viewbox="0 0 32 32">
		<path fill="#FFFFFF" d="M43.813,35.275c-1.65-2.213-2.537-3.825-2.925-5.45c-0.213-0.875-0.188-1.938-0.163-2.487
		c0.013-0.213,0.088-0.413,0.213-0.588c0.25-0.325,0.65-1.025,0.362-1.962c-0.188-0.613-0.7-0.975-1.063-1.15
		c-0.225-0.113-0.412-0.3-0.513-0.55c-0.125-0.313-0.337-0.762-0.6-1.125c-0.05-0.063-0.088-0.137-0.138-0.2
		c-0.425-0.588-0.175-1.413,0.513-1.65l2.063-0.725c1.638-0.575,1.638-2.9-0.013-3.463L23.013,9.6
		c-0.375-0.125-0.788-0.138-1.163-0.013L2.487,15.95c-1.662,0.55-1.688,2.9-0.025,3.475l19.45,6.688c0.163,0.05,0.337,0.05,0.5,0
		l8.55-3.15c0.875-0.325,0.949-1.538,0.125-1.962c-3.65-1.85-6.288-1.7-8.65-2.575c-1.425-0.525,0.438-1.75,2.188-1.362
		c0,0,2.725,0.237,5.5,1.288c2.513,0.95,4.15,1.7,5.275,2.587h-0.025c0,0,1.487,1.163,1.888,1.888c0.162,0.3,0.274,0.587,0.337,0.825
		c0.088,0.288,0.038,0.6-0.125,0.85c-0.199,0.313-0.425,0.837-0.35,1.513c0.075,0.612,0.388,0.987,0.65,1.2
		c0.25,0.199,0.387,0.512,0.387,0.824C38.138,30,38.15,36.263,39.075,38.925c1.1,3.175,2.85,3.45,3.763,3.575
		c1.05,0.138,3.662-0.025,5.35-1.375c1.15-0.912,0.037-1.35-0.725-1.862C46.487,38.588,45.025,36.888,43.813,35.275z"/>
		<path fill="#FFFFFF" d="M10.3,24.013c0,0,10.825,3.638,11.225,3.862c0.525,0.287,1.05,0.225,1.45,0.1
		c0.262-0.087,10.725-4.187,10.725-4.187l0.987,6.425c0,0,0.112,1.225-0.325,1.813c-1.162,1.537-2.212,2.487-5,3.899
		c-1.825,0.913-5,1.688-7.175,1.688s-4.638-0.438-6.975-1.325c-2.563-0.975-4.275-2.824-4.938-3.475
		c-0.525-0.525-1.25-1.425-0.987-2.662C9.55,28.912,10.3,24.013,10.3,24.013z"/>
	</symbol>
	<symbol id="icon-video-play" viewbox="0 0 32 32">
		<path d="M19.125,34.417c0-4.502,0-14.266,0-18.092c0-1.2,16.416,7.383,16.416,8.675C35.541,26.333,19.125,35.481,19.125,34.417z"/>
		<path fill="none" stroke="#FFFFFF" stroke-width="3" stroke-miterlimit="10" d="M47.205,25c0,12.263-9.941,22.204-22.205,22.204
		S2.796,37.263,2.796,25C2.796,12.737,12.737,2.796,25,2.796S47.205,12.737,47.205,25z M25,4.087C13.451,4.087,4.088,13.45,4.088,25
		S13.451,45.912,25,45.912c11.55,0,20.913-9.362,20.913-20.912S36.551,4.087,25,4.087z"/>
	</symbol>
	<symbol id="icon-electri-int" viewbox="0 0 32 32">
		<path d="M40.476,13.158c0-0.004-0.003-0.007-0.003-0.012c-0.001-0.051-0.01-0.102-0.029-0.148c-0.021-0.053-0.053-0.101-0.093-0.139
		l-8.031-8.034c-0.04-0.039-0.087-0.069-0.138-0.091c-0.052-0.021-0.106-0.033-0.161-0.033H9.317c-0.232,0-0.42,0.188-0.42,0.421
		v40.21c0,0.232,0.188,0.421,0.42,0.421h30.737c0.232,0,0.421-0.188,0.421-0.421V13.158L40.476,13.158L40.476,13.158z M32.441,6.139
		l6.597,6.597h-6.597V6.139z M9.739,44.911V5.543h21.86v7.615c0,0.232,0.189,0.42,0.421,0.42h7.614v31.333H9.739z"/>
		<path d="M15.563,31.613h-1.825c-0.232,0-0.421,0.188-0.421,0.421v9.684c0,0.232,0.189,0.422,0.421,0.422h1.825
		c0.233,0,0.421-0.189,0.421-0.422v-9.684C15.984,31.802,15.795,31.613,15.563,31.613z M15.142,41.297h-0.983v-8.841h0.983V41.297z"
		/>
		<path d="M31.142,28.595h-1.824c-0.232,0-0.421,0.188-0.421,0.422v12.701c0,0.232,0.188,0.422,0.421,0.422h1.824
		c0.232,0,0.421-0.189,0.421-0.422V29.017C31.563,28.783,31.374,28.595,31.142,28.595z M30.721,41.297h-0.982V29.438h0.982V41.297z"
		/>
		<path d="M25.949,23.192h-1.824c-0.233,0-0.422,0.189-0.422,0.421v18.104c0,0.232,0.188,0.422,0.422,0.422h1.824
		c0.232,0,0.421-0.189,0.421-0.422V23.613C26.37,23.382,26.182,23.192,25.949,23.192z M25.528,41.297h-0.983V24.035h0.983V41.297z"/>
		<path d="M20.756,34.421h-1.825c-0.232,0-0.421,0.188-0.421,0.422v6.875c0,0.232,0.188,0.422,0.421,0.422h1.825
		c0.232,0,0.421-0.189,0.421-0.422v-6.875C21.177,34.609,20.988,34.421,20.756,34.421z M20.334,41.297h-0.982v-6.035h0.982V41.297z"
		/>
		<path d="M36.335,30.421H34.51c-0.232,0-0.421,0.188-0.421,0.422v10.875c0,0.232,0.188,0.422,0.421,0.422h1.825
		c0.233,0,0.422-0.189,0.422-0.422V30.843C36.757,30.609,36.568,30.421,36.335,30.421z M35.915,41.297h-0.983V31.262h0.983V41.297z"
		/>
		<path d="M19.037,8.316c-3.541,0-6.421,2.879-6.421,6.419c0,1.295,0.39,2.502,1.053,3.512c0.004,0.008,0.004,0.016,0.008,0.021
		c0.002,0.005,0.007,0.005,0.01,0.01c1.152,1.733,3.119,2.878,5.351,2.878c3.54,0,6.421-2.88,6.421-6.421
		C25.458,11.196,22.577,8.316,19.037,8.316z M18.616,9.179v5.33l-4.452,2.934c-0.448-0.802-0.706-1.725-0.706-2.708
		C13.458,11.803,15.736,9.396,18.616,9.179z M19.037,20.315c-1.792,0-3.385-0.853-4.406-2.17l4.639-3.057
		c0.011-0.008,0.018-0.02,0.029-0.03c0.022-0.018,0.042-0.038,0.06-0.059c0.018-0.021,0.033-0.042,0.045-0.065
		c0.013-0.023,0.022-0.047,0.03-0.072c0.008-0.028,0.015-0.055,0.017-0.084c0.002-0.015,0.008-0.026,0.008-0.041V9.179
		c2.879,0.217,5.157,2.624,5.157,5.557C24.615,17.812,22.112,20.315,19.037,20.315z"/>
	</symbol>
	<symbol id="icon-basic-page" viewbox="0 0 32 32">
		<path d="M46.395,37.594l-6.647-6.648c-1.47-1.467-3.852-1.467-5.318,0c-0.913-0.91-1.824-1.822-2.736-2.736
		c4.953-6.271,4.536-15.406-1.252-21.194c-6.238-6.237-16.365-6.237-22.602,0c-6.237,6.237-6.237,16.364,0,22.602
		c5.787,5.787,14.924,6.205,21.194,1.252c0.913,0.912,1.825,1.822,2.736,2.736c-1.469,1.467-1.469,3.85,0,5.318
		c1.656,1.656,4.531,4.529,6.647,6.646c2.203,2.203,5.774,2.203,7.978,0C48.597,43.367,48.597,39.797,46.395,37.594z M27.781,26.957
		c-4.77,4.77-12.514,4.77-17.284,0c-4.769-4.769-4.769-12.513,0-17.283c4.77-4.77,12.514-4.77,17.284,0
		C32.551,14.444,32.551,22.188,27.781,26.957z M43.735,42.912c-0.733,0.732-1.926,0.732-2.661,0l-6.646-6.648l2.659-2.658
		l6.647,6.646C44.469,40.986,44.469,42.178,43.735,42.912z"/>
	</symbol>
	<symbol id="icon-pp-cc-ti" viewbox="0 0 32 32">
		<path d="M44.268,28.783c0.234,0,0.423-0.191,0.423-0.424v-1.69c0-0.233-0.188-0.423-0.423-0.423h-6.741v-2.465l0,0
		c-0.001-6.192-3.637-11.445-8.629-13.198V7.681c0-0.233-0.189-0.422-0.423-0.422h-2.798V4.669c0-0.232-0.189-0.422-0.423-0.422
		c-0.232,0-0.423,0.19-0.423,0.422v2.589h-2.8c-0.233,0-0.422,0.189-0.422,0.422v2.902c-4.993,1.752-8.628,7.006-8.629,13.198l0,0
		v2.465H6.239c-0.233,0-0.422,0.189-0.422,0.423v1.69c0,0.232,0.189,0.424,0.422,0.424h2.818v14.436H6.239
		c-0.233,0-0.422,0.189-0.422,0.422v1.689c0,0.232,0.189,0.424,0.422,0.424h38.029c0.234,0,0.423-0.191,0.423-0.424v-1.689
		c0-0.232-0.188-0.422-0.423-0.422H41.45V28.783H44.268z M22.454,8.102h5.6v2.234c-0.901-0.237-1.835-0.376-2.8-0.376
		c-0.964,0-1.899,0.14-2.801,0.376L22.454,8.102L22.454,8.102z M25.254,10.806c6.175,0,11.21,5.595,11.408,12.553H13.845
		C14.044,16.4,19.078,10.806,25.254,10.806z M13.826,24.204h22.855v2.042H13.826V24.204z M6.661,27.092h6.742h23.701h6.741v0.846
		h-2.817H39.46h-1.421h-1.571h-4.437h-1.569h-1.418h-1.571h-4.437h-1.57h-1.418h-1.571H14.04h-1.573H11.05H9.479H6.661V27.092z
		 M39.037,43.219h-0.576V28.783h0.576V43.219z M36.891,43.219V28.783h0.726v14.436H36.891z M32.454,43.219V28.783h3.592v14.436
		H32.454z M27.894,43.219V28.783h0.728v14.436H27.894z M23.458,43.219V28.783h3.591v14.436H23.458z M18.897,43.219V28.783h0.726
		v14.436H18.897z M14.461,43.219V28.783h3.591v14.436H14.461z M11.473,28.783h0.572v14.436h-0.572V28.783z M12.89,28.783h0.726
		v14.436H12.89V28.783z M20.47,28.783h0.573v14.436H20.47V28.783z M21.888,28.783h0.724v14.436h-0.724V28.783z M29.467,28.783h0.571
		v14.436h-0.571V28.783z M30.885,28.783h0.723v14.436h-0.723V28.783z M9.902,28.783h0.726v14.436H9.902V28.783z M43.846,44.908H6.661
		v-0.846h2.818h1.571h1.417h1.571h4.437h1.571h1.418h1.57h4.437h1.571h1.418h1.569h4.437h1.569h1.421h1.57h2.818V44.908z
		 M40.605,43.219h-0.724V28.783h0.724V43.219z"/>
	</symbol>
	<symbol id="icon-member-spotlight">
		<path d="M2.812,14.74l-0.176,0.176c-0.152,0.151-0.169,0.386-0.046,0.556l2.393,3.35c0.075,0.105,0.187,0.17,0.315,0.181
		c0.012,0,0.023,0,0.035,0c0.112,0,0.223-0.046,0.304-0.129l3.696-3.695c0.088-0.088,0.134-0.217,0.122-0.34
		c-0.012-0.129-0.075-0.239-0.18-0.316l-3.351-2.391c-0.17-0.124-0.41-0.105-0.556,0.046l-0.176,0.175l-0.602-0.602
		c-0.21-0.211-0.474-0.345-0.754-0.416V6.425c0-0.24-0.192-0.433-0.433-0.433c-0.24,0-0.432,0.193-0.432,0.433v4.906
		c-0.287,0.07-0.556,0.205-0.772,0.421c-0.66,0.661-0.66,1.731,0,2.386L2.812,14.74z M4.619,14.155l0.889-0.889l0,0l0.223-0.221
		l2.637,1.883l-2.971,2.976l-1.883-2.638L4.619,14.155z M2.824,12.361c0.046-0.047,0.105-0.07,0.158-0.105v0.667
		c0,0.239,0.192,0.433,0.432,0.433s0.433-0.194,0.433-0.433v-0.655c0.047,0.029,0.099,0.053,0.14,0.094l0.603,0.602l-1.164,1.164
		l-0.602-0.602C2.501,13.208,2.501,12.682,2.824,12.361z"/>
		<path d="M8.7,17.214c-0.163,0.176-0.158,0.444,0.019,0.608l15.767,15.019l-8.621,8.211L8.157,18.495
		c-0.077-0.228-0.322-0.345-0.549-0.269c-0.228,0.075-0.345,0.321-0.27,0.549l7.925,23.194l0,0c0.005,0.011,0.011,0.029,0.017,0.04
		c0.462,1.421,7.586,1.537,9.826,1.537c2.239,0,9.368-0.116,9.823-1.537c0.007-0.011,0.014-0.023,0.02-0.04l0,0l7.923-23.194
		c0.075-0.228-0.041-0.474-0.269-0.549c-0.228-0.076-0.475,0.041-0.55,0.269l-7.695,22.557l-8.621-8.211l15.766-15.012
		c0.177-0.165,0.183-0.438,0.02-0.609c-0.165-0.174-0.438-0.181-0.61-0.018l-15.8,15.041L9.315,17.202
		C9.139,17.039,8.87,17.045,8.7,17.214z M25.111,42.683c-4.708,0-7.883-0.438-8.808-0.818c0.924-0.381,4.1-0.819,8.808-0.819
		c4.707,0,7.883,0.438,8.808,0.819C32.994,42.244,29.817,42.683,25.111,42.683z M32.736,40.701c-2.42-0.462-6.122-0.516-7.625-0.516
		c-1.504,0-5.21,0.054-7.626,0.516l7.626-7.263L32.736,40.701z"/>
		<path d="M44.578,18.875c0.082,0.083,0.193,0.129,0.306,0.129c0.011,0,0.023,0,0.034,0c0.129-0.011,0.24-0.076,0.315-0.181
		l2.393-3.35c0.123-0.17,0.105-0.41-0.047-0.556l-0.175-0.176l0.603-0.602c0.659-0.661,0.659-1.731,0-2.386
		c-0.224-0.223-0.492-0.362-0.772-0.433V6.425c0-0.24-0.193-0.433-0.434-0.433c-0.238,0-0.433,0.193-0.433,0.433v4.901
		c-0.274,0.075-0.537,0.21-0.754,0.427l-0.602,0.602l-0.177-0.175c-0.15-0.152-0.385-0.17-0.555-0.046l-3.351,2.391
		c-0.105,0.077-0.17,0.187-0.183,0.316c-0.011,0.129,0.036,0.252,0.124,0.34L44.578,18.875z M46.233,12.361
		c0.041-0.041,0.095-0.064,0.142-0.094v0.649c0,0.239,0.191,0.432,0.432,0.432c0.241,0,0.433-0.192,0.433-0.432v-0.661
		c0.054,0.036,0.111,0.058,0.159,0.105c0.322,0.321,0.322,0.841,0,1.164l-0.603,0.602l-1.165-1.164L46.233,12.361z M44.492,13.045
		l0.222,0.221l0,0l0.55,0.544l1.449,1.451l-1.881,2.638l-2.973-2.977L44.492,13.045z"/>
	</symbol>
	<g id="icon-ec-mag" transform="translate(0,-284.29998)" stroke="none" stroke-width="1" fill="#4D4D4D" fill-rule="evenodd">
		<path d="M25.1,287.199c-5.107-0.154-9.374,3.863-9.528,8.971c-0.046,1.517,0.282,3.021,0.955,4.382
		c-4.039-0.837-8.165-1.18-12.286-1.021v7.374c-1.212,0.436-2.02,1.585-2.02,2.872v2.887c0,1.287,0.808,2.436,2.02,2.869v11.043
		c7.196-0.581,14.394,1.106,20.582,4.828c6.187-3.722,13.384-5.409,20.58-4.828v-11.043c1.213-0.434,2.02-1.582,2.021-2.869v-2.887
		c-0.002-1.287-0.809-2.437-2.021-2.872v-7.374c-4.121-0.159-8.248,0.184-12.287,1.021c2.268-4.582,0.391-10.132-4.191-12.398
		C27.732,287.565,26.43,287.239,25.1,287.199z M24.543,288.218c4.547-0.153,8.357,3.408,8.51,7.955
		c0.055,1.65-0.385,3.278-1.268,4.674c-2.369,0.558-4.697,1.285-6.962,2.177c-2.268-0.893-4.596-1.619-6.967-2.177
		c-2.428-3.848-1.278-8.935,2.569-11.362C21.661,288.705,23.082,288.268,24.543,288.218z M5.258,300.522
		c6.513-0.124,12.987,1.029,19.055,3.396v26.019c-5.811-3.234-12.413-4.774-19.055-4.444v-9.775c0.004,0,0.01,0,0.015,0h0.201
		c2.246,0,4.067-1.822,4.067-4.068c0,0,0,0,0-0.002v-0.85c-0.001-2.247-1.821-4.067-4.067-4.067H5.273c-0.005,0-0.01,0-0.015,0
		V300.522z M44.387,300.522v6.207c-0.004,0-0.01,0-0.014,0h-0.201c-2.246,0-4.066,1.82-4.066,4.067v0.85
		c-0.002,2.248,1.818,4.07,4.064,4.07h0.002h0.201c0.004,0,0.01,0,0.014,0v9.775c-6.643-0.33-13.244,1.21-19.055,4.444v-26.019
		C31.4,301.551,37.873,300.398,44.387,300.522L44.387,300.522z M5.271,307.745h0.2c1.685,0.001,3.05,1.366,3.05,3.051v0.85
		c0.001,1.686-1.365,3.053-3.05,3.053c0,0,0,0,0,0h-0.2c-1.123,0-2.033-0.91-2.033-2.033v-2.887
		C3.238,308.656,4.148,307.746,5.271,307.745L5.271,307.745z M44.172,307.745h0.201c1.121,0.001,2.031,0.911,2.031,2.033v2.887
		c0.002,1.123-0.908,2.033-2.031,2.033h-0.201c-1.684,0-3.051-1.367-3.049-3.051c0-0.002,0-0.002,0-0.002v-0.85
		C41.123,309.112,42.488,307.746,44.172,307.745L44.172,307.745z"/>
	</g>
	<g id="icon-chapters">
		<g>
			<path d="M19.638,29.852h3.897l-1.364,6.722c-0.244,1.119,1.217,1.753,1.899,0.827l7.792-10.47c0.536-0.683,0-1.706-0.877-1.706
			H27.09l1.363-6.72c0.244-1.121-1.217-1.753-1.899-0.828l-7.792,10.47C18.274,28.829,18.761,29.852,19.638,29.852z"/>
			<path d="M47.982,25.567L26.358,5.257c-0.584-0.536-1.461-0.536-2.045,0L2.689,25.567c-0.438,0.438-0.584,1.072-0.389,1.655
			c0.243,0.585,0.779,0.925,1.412,0.925h5.455v15.489c0,0.827,0.682,1.51,1.51,1.51h29.369c0.827,0,1.509-0.683,1.509-1.51V28.146
			h5.454c0.634,0,1.169-0.389,1.413-0.925C48.567,26.639,48.421,26.005,47.982,25.567z M39.994,25.176
			c-0.827,0-1.508,0.682-1.508,1.509v15.487H12.138V26.639c0-0.829-0.683-1.511-1.51-1.511H7.462L25.336,8.375l17.875,16.802H39.994
			z"/>
		</g>
	</g>
	<g id="location-pin" stroke="none" stroke-width="1" fill="none" fill-rule="evenodd">
		<g id="NECA_Events-Detail-Landing" transform="translate(-1150.000000, -594.000000)" fill="#4A4A4A" fill-rule="nonzero">
			<g id="Hero" transform="translate(340.000000, 378.000000)">
				<path d="M816.729219,235.59648 C811.053516,227.368396 810,226.523943 810,223.5 C810,219.357851 813.357852,216 817.5,216 C821.642148,216 825,219.357851 825,223.5 C825,226.523943 823.946484,227.368396 818.270781,235.59648 C817.89832,236.134526 817.101641,236.134487 816.729219,235.59648 Z M817.5,226.624997 C819.225898,226.624997 820.625,225.225896 820.625,223.499998 C820.625,221.7741 819.225898,220.374999 817.5,220.374999 C815.774102,220.374999 814.375,221.7741 814.375,223.499998 C814.375,225.225896 815.774102,226.624997 817.5,226.624997 Z" id="location"></path>
			</g>
		</g>
	</g>
	<g id="event-education" viewBox="0 0 32 32">
		<g id="Events-Listing-Education" transform="translate(-1584.000000, -737.000000)" fill="#FFFFFF" fill-rule="nonzero">
			<g id="Row-1" transform="translate(240.000000, 713.000000)">
				<g id="Bitmap" transform="translate(967.000000, 0.000000)">
					<path d="M428.919687,63.8232422 L418.664125,25.7124219 C418.365305,24.6019531 417.228707,23.7142969 415.833012,24.08625 L414.438219,24.4582031 C413.880302,24.6073437 413.397316,25.0332031 412.988357,25.7375781 C411.721759,26.3610938 408.266826,27.2837891 406.849464,27.3745313 C406.141686,26.9675391 405.508838,26.8390625 404.950921,26.9882031 L403.555226,27.3601563 C403.336753,27.4185547 403.176059,27.5353516 403.000017,27.636875 L403.000017,26.875 C403.000017,25.2874609 401.706336,24 400.111126,24 L394.333345,24 C392.738135,24 391.444454,25.2874609 391.444454,26.875 L391.444454,32.625 L403.000017,32.625 L412.177662,68.2875781 C412.476482,69.3980469 413.61308,70.2857031 415.008775,69.91375 L416.403568,69.5417969 C416.961485,69.3926563 417.444471,68.9667969 417.85343,68.2624219 C419.109194,67.6442969 422.564127,66.7171094 423.992323,66.6254688 C424.700101,67.0324609 425.332949,67.1609375 425.890866,67.0117969 L427.286561,66.6398438 C428.681353,66.2678906 429.219409,64.9337109 428.919687,63.8232422 L428.919687,63.8232422 Z M416.786346,63.1889453 L408.474465,32.2988672 L414.055441,30.8110547 L422.367322,61.7011328 L416.786346,63.1889453 L416.786346,63.1889453 Z M377,58.5 L388.555563,58.5 L388.555563,35.5 L377,35.5 L377,58.5 Z M385.666672,24 L379.888891,24 C378.293681,24 377,25.2874609 377,26.875 L377,32.625 L388.555563,32.625 L388.555563,26.875 C388.555563,25.2874609 387.261882,24 385.666672,24 Z M377,67.125 C377,68.7125391 378.293681,70 379.888891,70 L385.666672,70 C387.261882,70 388.555563,68.7125391 388.555563,67.125 L388.555563,61.375 L377,61.375 L377,67.125 Z M391.444454,58.5 L403.000017,58.5 L403.000017,35.5 L391.444454,35.5 L391.444454,58.5 Z M391.444454,67.125 C391.444454,68.7125391 392.738135,70 394.333345,70 L400.111126,70 C401.706336,70 403.000017,68.7125391 403.000017,67.125 L403.000017,61.375 L391.444454,61.375 L391.444454,67.125 Z" id="edu_icon"></path>
				</g>
			</g>
		</g>
	</g>
	<g id="icon-virtual-classroom" transform="matrix(1,0,0,1,-343,0)">
		<path d="M364.084,36.354h-16.16c-1.339,0-2.424-1.085-2.424-2.424V4.841c0-1.339,1.085-2.424,2.424-2.424h40.401
		c1.34,0,2.425,1.085,2.425,2.424V33.93c0,1.339-1.085,2.424-2.425,2.424h-16.159v4.849h4.848c1.34,0,2.424,1.086,2.424,2.425v1.616
		c0,1.339-1.084,2.424-2.424,2.424h-17.777c-1.339,0-2.424-1.085-2.424-2.424v-1.616c0-1.339,1.085-2.425,2.424-2.425h4.848V36.354z
		 M377.014,42.818h-17.777c-0.445,0-0.807,0.363-0.807,0.809v1.616c0,0.444,0.362,0.809,0.807,0.809h17.777
		c0.444,0,0.808-0.364,0.808-0.809v-1.616C377.821,43.182,377.458,42.818,377.014,42.818z M365.701,36.354v4.849h4.848v-4.849
		H365.701z M386.71,34.738h1.615c0.446,0,0.81-0.364,0.81-0.809V4.841c0-0.447-0.363-0.809-0.81-0.809h-40.401
		c-0.447,0-0.809,0.362-0.809,0.809V33.93c0,0.444,0.362,0.809,0.809,0.809h1.616v-2.425c0-3.124,2.532-5.656,5.657-5.656
		c3.123,0,5.655,2.532,5.655,5.656v2.425h1.617v-2.425c0-3.124,2.533-5.656,5.657-5.656c3.124,0,5.656,2.532,5.656,5.656v2.425
		h1.616v-2.425c0-3.124,2.531-5.656,5.655-5.656s5.657,2.532,5.657,5.656V34.738z M359.236,32.313c0-2.23-1.809-4.04-4.04-4.04
		c-2.232,0-4.04,1.81-4.04,4.04v2.425h8.08V32.313z M385.093,32.313c0-2.23-1.808-4.04-4.04-4.04c-2.229,0-4.039,1.81-4.039,4.04
		v2.425h8.079V32.313z M364.084,34.738h8.082v-2.425c0-2.23-1.81-4.04-4.041-4.04c-2.232,0-4.041,1.81-4.041,4.04V34.738z
		 M355.197,16.961c-2.231,0-4.04,1.811-4.04,4.04c0,2.23,1.809,4.041,4.04,4.041c2.23,0,4.04-1.811,4.04-4.041
		C359.236,18.771,357.427,16.961,355.197,16.961z M368.125,16.961c-2.23,0-4.041,1.811-4.041,4.04c0,2.23,1.811,4.041,4.041,4.041
		c2.229,0,4.041-1.811,4.041-4.041C372.166,18.771,370.354,16.961,368.125,16.961z M381.053,16.961c-2.229,0-4.039,1.811-4.039,4.04
		c0,2.23,1.81,4.041,4.039,4.041c2.23,0,4.04-1.811,4.04-4.041C385.093,18.771,383.283,16.961,381.053,16.961z M355.197,18.578
		c1.338,0,2.423,1.084,2.423,2.423c0,1.338-1.084,2.424-2.423,2.424c-1.338,0-2.424-1.086-2.424-2.424
		C352.772,19.663,353.859,18.578,355.197,18.578z M368.125,18.578c1.338,0,2.423,1.084,2.423,2.423c0,1.338-1.085,2.424-2.423,2.424
		c-1.339,0-2.424-1.086-2.424-2.424C365.701,19.663,366.787,18.578,368.125,18.578z M381.053,18.578
		c1.339,0,2.426,1.084,2.426,2.423c0,1.338-1.087,2.424-2.426,2.424c-1.337,0-2.423-1.086-2.423-2.424
		C378.63,19.663,379.716,18.578,381.053,18.578z M377.04,15.346h2.397c0.645,0,1.259-0.256,1.714-0.711
		c0.454-0.454,0.71-1.07,0.71-1.713V8.073c0-0.644-0.256-1.26-0.71-1.714c-0.455-0.455-1.069-0.71-1.714-0.71h-22.625
		c-0.642,0-1.26,0.255-1.713,0.71c-0.456,0.454-0.709,1.07-0.709,1.714v4.848c0,0.643,0.254,1.259,0.709,1.713
		c0.453,0.455,1.071,0.711,1.713,0.711h16.969c0.446,0,0.808-0.362,0.808-0.81c0-0.445-0.361-0.808-0.808-0.808h-16.969
		c-0.213,0-0.419-0.084-0.571-0.236c-0.152-0.151-0.236-0.356-0.236-0.571V8.073c0-0.214,0.084-0.421,0.236-0.571
		c0.151-0.153,0.358-0.238,0.571-0.238h22.625c0.214,0,0.42,0.084,0.572,0.238c0.15,0.15,0.236,0.357,0.236,0.571v4.848
		c0,0.214-0.086,0.419-0.236,0.571c-0.152,0.152-0.358,0.236-0.572,0.236h-2.397c-0.446,0-0.808,0.362-0.808,0.808
		C376.232,14.983,376.594,15.346,377.04,15.346z M363.276,11.306h9.696c0.446,0,0.809-0.362,0.809-0.81
		c0-0.445-0.362-0.807-0.809-0.807h-9.696c-0.445,0-0.808,0.362-0.808,0.807C362.469,10.943,362.831,11.306,363.276,11.306z"/>
	</g>
	<g id="icon-arrow-circle" stroke="none" stroke-width="1" fill="none" fill-rule="evenodd">
		<g id="NECA-Chapter-Website-Interior---Desktop" transform="translate(-600.000000, -1310.000000)" fill="#004598">
			<path d="M619.721014,1321.32322 L614.108352,1315.69426 L612.69798,1314.2798 C612.511646,1314.09292 612.263544,1314 612,1314 C611.736456,1314 611.488354,1314.09292 611.30202,1314.2798 L609.891648,1315.69426 L604.278986,1321.32322 C604.092652,1321.5101 604,1321.75892 604,1322.02323 C604,1322.28754 604.092652,1322.53636 604.278986,1322.7222 L605.689358,1324.1377 C605.875692,1324.32458 606.123794,1324.41853 606.387338,1324.41853 C606.650881,1324.41853 606.898983,1324.32458 607.085317,1324.1377 L610.015185,1321.1983 L610.015185,1329.00471 C610.015185,1329.54882 610.465062,1330 611.007592,1330 L612.992408,1330 C613.534938,1330 613.984815,1329.54882 613.984815,1329.00471 L613.984815,1321.1983 L616.914683,1324.1377 C617.101017,1324.32458 617.349119,1324.43299 617.612662,1324.43299 C617.876206,1324.43299 618.124308,1324.32458 618.310642,1324.1377 L619.721014,1322.7222 C619.907348,1322.53636 620,1322.28754 620,1322.02323 C620,1321.75892 619.907348,1321.5101 619.721014,1321.32322 M612,1334 C605.374373,1334 600,1328.62586 600,1322.00052 C600,1315.37518 605.374373,1310 612,1310 C618.625627,1310 624,1315.37518 624,1322.00052 C624,1328.62586 618.625627,1334 612,1334" id="Fill-1-Copy-12" transform="translate(612.000000, 1322.000000) rotate(-270.000000) translate(-612.000000, -1322.000000) "></path>
		</g>
	</g>
	<g id="icon-article">
		<g id="NECA_Programs---TopIssues-List" transform="translate(-621.000000, -1941.000000)">
			<g id="Course-1" transform="translate(240.000000, 1913.000000)">
				<path d="M419.0815,27.9997 L419.0815,50.4187 L425.7905,50.4187 L425.7905,63.9007 C425.7905,66.0107 424.0795,67.7217 421.9695,67.7217 L421.9695,67.7217 L417.6975,67.7217 L417.6975,67.7097 L386.4955,67.7097 C383.4655,67.7097 381.0005,65.2447 381.0005,62.2147 L381.0005,62.2147 L381.0005,27.9997 L419.0815,27.9997 Z M416.0815,30.9997 L384.0005,30.9997 L384.0005,62.2147 C384.0005,63.5907 385.1195,64.7097 386.4955,64.7097 L386.4955,64.7097 L417.6745,64.6277 C417.6745,64.6277 416.0925,63.2327 415.9995,61.4187 C415.9495,60.4437 416.0815,41.3727 416.0815,30.9997 L416.0815,30.9997 Z M405.306,59.0003 L405.306,61.0833 L387.488,61.0833 L387.488,59.0003 L405.306,59.0003 Z M412.283,59.0003 L412.283,61.0833 L408.228,61.0833 L408.228,59.0003 L412.283,59.0003 Z M412.371,54.8143 L412.371,56.8973 L394.67,56.8973 L394.67,54.8143 L412.371,54.8143 Z M391.641,54.8143 L391.641,56.8973 L387.553,56.8973 L387.553,54.8143 L391.641,54.8143 Z M412.372,50.6283 L412.372,52.7113 L387.488,52.7113 L387.488,50.6283 L412.372,50.6283 Z M387.9254,39.5752 C391.7454,39.7732 394.7764,42.6432 394.9864,46.2602 C394.9984,46.3642 394.9494,46.4692 394.8754,46.5402 C394.8014,46.6092 394.7024,46.6562 394.5924,46.6562 L394.5924,46.6562 L393.0144,46.6562 C392.8054,46.6562 392.6324,46.5052 392.6204,46.3062 C392.4364,43.9152 390.4014,41.9902 387.8754,41.8152 C387.6664,41.8032 387.5064,41.6402 387.5064,41.4412 L387.5064,41.4412 L387.5064,39.9482 C387.5064,39.8442 387.5554,39.7502 387.6294,39.6802 C387.7034,39.6102 387.8144,39.5642 387.9254,39.5752 Z M387.843052,35.094524 L387.9131,35.0957 C394.3211,35.2937 399.5091,40.2057 399.7181,46.2717 C399.7311,46.3767 399.6941,46.4697 399.6081,46.5397 C399.5341,46.6087 399.4351,46.6557 399.3241,46.6557 L399.3241,46.6557 L397.7461,46.6557 C397.5371,46.6557 397.3651,46.4927 397.3521,46.2947 C397.1671,41.4537 393.0021,37.5097 387.8881,37.3357 C387.6791,37.3237 387.5061,37.1607 387.5061,36.9617 L387.5061,36.9617 L387.5061,35.4687 C387.5061,35.3637 387.5551,35.2707 387.6291,35.2007 C387.7031,35.1187 387.7891,35.0847 387.9131,35.0957 Z M389.0834,43.67 C389.9584,43.67 390.6604,44.335 390.6604,45.163 C390.6604,45.991 389.9584,46.656 389.0834,46.656 C388.2084,46.656 387.5064,45.991 387.5064,45.163 C387.5064,44.335 388.2084,43.67 389.0834,43.67 Z M412.512,35.3253 L412.512,46.5813 L401.116,46.5813 L401.116,35.3253 L412.512,35.3253 Z" id="article-icon"></path>
			</g>
		</g>
	</g>
	<g id="icon-document" stroke="none" stroke-width="1">
		<g id="NECA_Programs---TopIssues-List" transform="translate(-1591.000000, -1138.000000)" fill="#FFFFFF">
			<g id="Row-1-Copy" transform="translate(240.000000, 1113.000000)">
				<g id="Course-3" transform="translate(967.000000, 0.000000)">
					<path d="M409.0784,25.0004 C410.2654,25.0004 411.9214,25.7824 412.7494,26.7164 L412.7494,26.7164 L419.7344,34.5934 C420.5624,35.5264 421.2554,37.3944 421.2554,38.7324 L421.2554,38.7324 L421.2554,67.8144 C421.2554,69.1524 420.2934,70.2374 419.1074,70.2374 L419.1074,70.2374 L389.0234,70.2374 C387.8364,70.2374 386.8734,69.1524 386.8734,67.8144 L386.8734,67.8144 L386.8734,60.8084 L385.8034,60.8084 C384.8074,60.8084 383.9994,60.0014 383.9994,59.0054 L383.9994,59.0054 L383.9994,48.1964 C383.9994,47.2004 384.8074,46.3934 385.8034,46.3934 L385.8034,46.3934 L386.8734,46.3934 L386.8734,27.4234 C386.8734,26.0854 387.8364,25.0004 389.0234,25.0004 L389.0234,25.0004 Z M406.9304,28.2314 L389.7384,28.2314 L389.7384,46.3934 L412.3364,46.3934 C413.3314,46.3934 414.1394,47.2004 414.1394,48.1964 L414.1394,48.1964 L414.1394,59.0054 C414.1394,60.0014 413.3314,60.8084 412.3364,60.8084 L412.3364,60.8084 L389.7384,60.8084 L389.7384,67.0064 L418.3904,67.0064 L418.3904,41.1564 L409.0784,41.1564 C407.8924,41.1564 406.9304,40.0714 406.9304,38.7324 L406.9304,38.7324 L406.9304,28.2314 Z M410.4274,49.7974 L404.8674,49.7974 L404.8674,57.1024 L406.4994,57.1024 L406.4994,54.0504 L409.8424,54.0504 L409.8424,52.9604 L406.4994,52.9604 L406.4994,50.8874 L410.4274,50.8874 L410.4274,49.7974 Z M398.9484,49.7974 L396.4954,49.7974 L396.4954,57.1024 L399.0324,57.1024 C401.7684,57.1024 403.4344,55.8374 403.4344,53.4204 C403.4344,51.0034 401.7684,49.7974 398.9484,49.7974 L398.9484,49.7974 Z M391.6614,49.7974 L388.7644,49.7974 L388.7644,57.1024 L390.3964,57.1024 L390.3964,54.4174 L391.7184,54.4174 C393.6984,54.4174 395.2184,53.6774 395.2184,52.0484 C395.2184,50.3604 393.7044,49.7974 391.6614,49.7974 L391.6614,49.7974 Z M398.8424,50.8471 C400.6934,50.8471 401.7574,51.6241 401.7574,53.4201 C401.7574,55.2171 400.6934,56.0521 398.8424,56.0521 L398.8424,56.0521 L398.1274,56.0521 L398.1274,50.8471 Z M391.527,50.8338 C392.894,50.8338 393.609,51.1418 393.609,52.0488 C393.609,52.9468 392.957,53.3808 391.584,53.3808 L391.584,53.3808 L390.396,53.3808 L390.396,50.8338 Z M409.7954,28.4334 L409.7954,37.9254 L418.2114,37.9254 C418.0764,37.4964 417.8754,37.0664 417.7194,36.8894 L417.7194,36.8894 L410.7134,28.9884 C410.5564,28.8114 410.1754,28.5854 409.7954,28.4334 L409.7954,28.4334 Z" id="doc-icon"></path>
				</g>
			</g>
		</g>
	</g>
	<g id="icon-position-paper" stroke="none" stroke-width="1">
		<g id="NECA_Programs---TopIssues-List" transform="translate(-627.000000, -735.000000)" fill="#FFFFFF">
			<g id="Course-1" transform="translate(240.000000, 713.000000)">
				<path d="M420.8194,57.0586 C421.5034,57.0586 422.0574,57.6126 422.0574,58.2966 L422.0574,58.2966 L422.0574,59.7696 C422.0574,59.7806 422.0514,59.7906 422.0514,59.8026 C424.4434,60.3316 426.2774,62.3406 426.5364,64.8226 C426.5554,64.8216 426.5704,64.8126 426.5884,64.8126 L426.5884,64.8126 L428.0614,64.8126 C428.7454,64.8126 429.2994,65.3666 429.2994,66.0506 L429.2994,66.0506 L429.2994,66.3646 C429.2994,67.0486 428.7454,67.6026 428.0614,67.6026 L428.0614,67.6026 L426.5884,67.6026 C426.4414,67.6026 426.3044,67.5666 426.1734,67.5186 C425.4814,69.2976 423.9374,70.6466 422.0384,71.0616 C422.0404,71.0946 422.0574,71.1236 422.0574,71.1576 L422.0574,71.1576 L422.0574,72.6306 C422.0574,73.3136 421.5034,73.8686 420.8194,73.8686 L420.8194,73.8686 L420.5054,73.8686 C419.8224,73.8686 419.2674,73.3136 419.2674,72.6306 L419.2674,72.6306 L419.2674,71.1576 C419.2674,71.0996 419.2924,71.0496 419.3004,70.9936 C417.5354,70.5186 416.1094,69.2316 415.4434,67.5536 C415.3624,67.5706 415.2864,67.6026 415.2004,67.6026 L415.2004,67.6026 L413.7284,67.6026 C413.0444,67.6026 412.4894,67.0486 412.4894,66.3646 L412.4894,66.3646 L412.4894,66.0506 C412.4894,65.3666 413.0444,64.8126 413.7284,64.8126 L413.7284,64.8126 L415.0694,64.8126 C415.3224,62.4286 417.0304,60.4846 419.2874,59.8706 C419.2844,59.8356 419.2674,59.8056 419.2674,59.7696 L419.2674,59.7696 L419.2674,58.2966 C419.2674,57.6126 419.8224,57.0586 420.5054,57.0586 L420.5054,57.0586 Z M420.8434,61.9786 C418.9144,61.9786 417.3504,63.5426 417.3504,65.4716 C417.3504,67.4016 418.9144,68.9656 420.8434,68.9656 C422.7734,68.9656 424.3364,67.4016 424.3364,65.4716 C424.3364,63.5426 422.7734,61.9786 420.8434,61.9786 Z M419.9555,22.5516 C421.1425,22.5516 422.1045,23.6376 422.1045,24.9756 L422.1045,24.9756 L422.1045,52.1616 C422.0575,52.9416 421.3645,53.5006 420.9875,53.5006 L420.9875,53.5006 L420.5925,53.5006 C420.2005,53.5006 419.2905,52.9886 419.2385,52.1746 L419.2385,52.1746 L419.2385,27.2236 C419.2385,26.4276 418.5945,25.7836 417.7995,25.7836 L417.7995,25.7836 L403.4875,25.7836 C402.6935,25.7836 402.0485,26.4276 402.0485,27.2236 L402.0485,27.2236 L402.0485,36.2846 C402.0485,37.6226 401.0855,38.7086 399.8995,38.7086 L399.8995,38.7086 L392.0285,38.7086 C391.2325,38.7086 390.5875,39.3526 390.5875,40.1486 L390.5875,40.1486 L390.5875,63.1186 C390.5875,63.9136 391.2325,64.5586 392.0285,64.5586 L392.0285,64.5586 L407.6915,64.5586 C408.5245,64.5586 409.1315,65.2596 409.1265,66.0926 L409.1265,66.0926 L409.1265,66.2546 C409.1325,67.0876 408.5245,67.7896 407.6915,67.7896 L407.6915,67.7896 L389.8705,67.7896 C388.6845,67.7896 387.7225,66.7046 387.7225,65.3656 L387.7225,65.3656 L387.7225,36.2846 C387.7225,34.9466 388.4155,33.0786 389.2435,32.1456 L389.2435,32.1456 L396.2285,24.2686 C397.0565,23.3346 398.7125,22.5516 399.8995,22.5516 L399.8995,22.5516 Z M399.1835,25.9856 C398.8025,26.1366 398.4215,26.3636 398.2655,26.5406 L398.2655,26.5406 L391.2585,34.4416 C391.1025,34.6186 390.9015,35.0476 390.7665,35.4766 L390.7665,35.4766 L397.7425,35.4766 C398.5375,35.4766 399.1835,34.8326 399.1835,34.0366 L399.1835,34.0366 Z" id="positionpaper-icon"></path>
			</g>
		</g>
	</g>
	<g id="icon-download" stroke="none" stroke-width="1" fill="none" fill-rule="evenodd">
		<g id="NECA_About-Us---alt" transform="translate(-1213.000000, -5701.000000)" fill="#FFFFFF">
			<g id="Career-Center" transform="translate(-32.000000, 5346.000000)">
				<g id="btn---Staff-Associates-Program-Guide" transform="translate(920.000000, 339.000000)">
					<g id="download-icon" transform="translate(325.000000, 16.000000)">
						<path d="M20.5668424,20 L0.433157568,20 C0.194595223,20 0,19.762 0,19.468 L0,18.532 C0,18.238 0.194595223,18 0.433157568,18 L20.5668424,18 C20.806219,18 21,18.238 21,18.532 L21,19.468 C21,19.762 20.806219,20 20.5668424,20" id="Fill-4"></path>
						<path d="M10.2766283,14.8828064 L15.8794491,9.43602215 C15.9513006,9.36617168 16,9.26061986 16,9.1674859 C16,9.07357583 15.9513006,8.96802401 15.8794491,8.89894966 L15.2782915,8.31453407 C15.20644,8.24390749 15.0978644,8.19656439 15.0012641,8.19656439 C14.905462,8.19656439 14.7968864,8.24390749 14.7250349,8.31453407 L10.7979509,12.1314741 L10.7979509,0.250685569 C10.7979509,0.112536866 10.6829885,0 10.5408822,0 L9.45991617,0 C9.31701151,0 9.20125075,0.112536866 9.20125075,0.250685569 L9.20125075,12.1314741 L5.27416672,8.31453407 C5.20311357,8.24390749 5.09453795,8.19656439 4.99873595,8.19656439 C4.89016034,8.19656439 4.79355998,8.24390749 4.72170847,8.31453407 L4.12055086,8.89894966 C4.047901,8.96802401 4,9.07357583 4,9.1674859 C4,9.26061986 4.047901,9.36617168 4.12055086,9.43602215 L9.7233717,14.8828064 C9.79522321,14.9526569 9.90379882,15 9.99960082,15 C10.0954028,15 10.2039784,14.9526569 10.2766283,14.8828064" id="Fill-1"></path>
					</g>
				</g>
			</g>
		</g>
	</g>
	<g id="icon-email" stroke="none" stroke-width="1" fill="none" fill-rule="evenodd">
		<g id="NECA_About-Us---Staff-Directory" transform="translate(-251.000000, -898.000000)" fill="#004598" fill-rule="nonzero">
			<g id="content" transform="translate(0.000000, 307.000000)">
				<g id="Executive-Office" transform="translate(211.000000, 140.000000)">
					<g id="BOARD-MEMBER-Copy" transform="translate(40.000000, 92.000000)">
						<path d="M1.875,359 C1.625,359 1.40625,359.065385 1.1875,359.130769 L11.90625,368.873077 C12.28125,369.232692 12.75,369.232692 13.125,368.873077 L23.8125,359.130769 C23.59375,359.032692 23.375,359 23.125,359 C23.125,359 1.875,359 1.875,359 Z M0.03125,360.7 C0.03125,360.798077 0,360.896154 0,360.961538 L0,374.038462 C0,374.3 0.0625,374.561538 0.15625,374.790385 L7.5625,367.532692 L0.03125,360.7 L0.03125,360.7 Z M24.96875,360.7 L17.4375,367.565385 L24.84375,374.823077 C24.9375,374.594231 25,374.332692 25,374.071154 L25,360.994231 C25,360.863462 25,360.798077 24.96875,360.7 L24.96875,360.7 Z M16.03125,368.840385 L14.34375,370.376923 C13.3125,371.325 11.71875,371.325 10.65625,370.376923 L8.96875,368.840385 L1.65625,376 C1.71875,376 1.78125,376 1.84375,376 L23.09375,376 C23.15625,376 23.21875,376 23.28125,376 L16.03125,368.840385 L16.03125,368.840385 Z" id="email-icon"></path>
					</g>
				</g>
			</g>
		</g>
	</g>
	<symbol id="icon-printer" viewBox="0 0 32 32">
		<path d="M8 2h16v4h-16v-4z"></path>
		<path d="M30 8h-28c-1.1 0-2 0.9-2 2v10c0 1.1 0.9 2 2 2h6v8h16v-8h6c1.1 0 2-0.9 2-2v-10c0-1.1-0.9-2-2-2zM4 14c-1.105 0-2-0.895-2-2s0.895-2 2-2 2 0.895 2 2-0.895 2-2 2zM22 28h-12v-10h12v10z"></path>
	</symbol>
	<g id="icon-airplane" stroke="none" stroke-width="1" fill="none" fill-rule="evenodd">
		<g id="NECA_HP-r1" transform="translate(-1450.000000, -2502.000000)" fill="#69A500">
			<g id="Latest-News" transform="translate(981.000000, 2454.000000)">
				<g id="Subscribe-button" transform="translate(450.000000, 30.000000)">
					<path d="M24.711947,29.7142891 C25.1019348,29.8601825 25.5370233,29.8128837 25.8872164,29.588381 L37.6113917,22.067205 L27.941285,31.3391029 C27.6806299,31.5889205 27.5320631,31.9353343 27.5307366,32.2970702 L27.4975744,40.3298727 C27.4949214,41.051346 28.4758602,41.2625252 28.7670246,40.6030067 L31.3490359,34.7539433 C31.5075514,34.3955383 31.9379972,34.2509772 32.2789049,34.4421709 L39.1262424,38.2760387 C39.5560249,38.517196 40.0886103,38.2194134 40.1111607,37.7257738 L40.9992452,18.6976648 C41.0217955,18.2120194 40.534974,17.8662718 40.0866206,18.0501375 L19.4132857,26.5052984 C18.852844,26.7344644 18.8654456,27.5352132 19.4325198,27.7463923 L24.711947,29.7142891 Z" id="Icon-email"></path>
				</g>
			</g>
		</g>
	</g>
	<g id="icon-in-seat">
		<g transform="translate(-623.000000, -809.000000)">
			<g transform="translate(0.000000, 631.000000)">
				<g transform="translate(240.000000, 143.000000)">
					<path d="M402.0554,66.3489 C404.8074,66.3489 407.1214,68.4769 407.7814,71.3599 C407.9764,72.2129 407.3994,73.0469 406.6214,73.0469 L406.6214,73.0469 L397.4894,73.0469 C396.7114,73.0469 396.1344,72.2129 396.3294,71.3599 C396.9904,68.4769 399.3034,66.3489 402.0554,66.3489 Z M388.8693,66.3489 C391.6213,66.3489 393.9353,68.4769 394.5953,71.3599 C394.7903,72.2129 394.2133,73.0469 393.4363,73.0469 L393.4363,73.0469 L384.3033,73.0469 C383.5253,73.0469 382.9483,72.2129 383.1433,71.3599 C383.8043,68.4769 386.1173,66.3489 388.8693,66.3489 Z M415.1716,66.3489 C417.9236,66.3489 420.2376,68.4769 420.8976,71.3599 C421.0926,72.2129 420.5156,73.0469 419.7386,73.0469 L419.7386,73.0469 L410.6056,73.0469 C409.8276,73.0469 409.2506,72.2129 409.4456,71.3599 C410.1066,68.4769 412.4196,66.3489 415.1716,66.3489 Z M402.0696,59.2324 C403.9186,59.2324 405.4186,60.7314 405.4186,62.5814 C405.4186,64.4314 403.9186,65.9304 402.0696,65.9304 C400.2206,65.9304 398.7206,64.4314 398.7206,62.5814 C398.7206,60.7314 400.2206,59.2324 402.0696,59.2324 Z M388.8836,59.2324 C390.7326,59.2324 392.2326,60.7314 392.2326,62.5814 C392.2326,64.4314 390.7326,65.9304 388.8836,65.9304 C387.0346,65.9304 385.5346,64.4314 385.5346,62.5814 C385.5346,60.7314 387.0346,59.2324 388.8836,59.2324 Z M415.1859,59.2324 C417.0349,59.2324 418.5349,60.7314 418.5349,62.5814 C418.5349,64.4314 417.0349,65.9304 415.1859,65.9304 C413.3369,65.9304 411.8369,64.4314 411.8369,62.5814 C411.8369,60.7314 413.3369,59.2324 415.1859,59.2324 Z M420.976,34.9995 L420.976,55.6745 L383,55.6745 L383,34.9995 L420.976,34.9995 Z" id="inseat-icon"></path>
				</g>
			</g>
		</g>
	</g>
	<g id="icon-neca-family-stars" stroke="none" stroke-width="1" fill="none" fill-rule="evenodd">
		<g id="Artboard" transform="translate(-184.000000, -364.000000)" fill="#CE862F">
			<g id="NECA-family-stars" transform="translate(181.000000, 362.000000)">
				<g id="stars" transform="translate(-0.000500, 0.000300)">
					<polygon id="Fill-1" points="6.344 15.626 3 16.193 5.992 17.757 5.503 21.1 7.927 18.735 10.957 20.259 9.452 17.229 11.838 14.804 8.475 15.294 6.911 12.302"></polygon>
					<polygon id="Fill-2" points="20.0681 2 19.1881 7.082 14.0861 7.924 18.6601 10.328 17.8981 15.43 21.5921 11.833 26.2261 14.12 23.9391 9.507 27.5551 5.831 22.4531 6.575"></polygon>
					<polygon id="Fill-3" points="27.7316 16.6421 24.7016 17.1501 27.4186 18.5781 26.9696 21.6081 29.1586 19.4571 31.9146 20.8251 30.5666 18.0891 32.7156 15.9001 29.6666 16.3501 28.2586 13.6321"></polygon>
					<polygon id="Fill-4" points="33.5966 4.5215 35.2776 7.7085 38.8356 7.1995 36.3136 9.7605 37.8976 12.9865 34.6716 11.3835 32.0916 13.9055 32.6186 10.3475 29.4326 8.6665 32.9906 8.0795"></polygon>
					<polygon id="Fill-5" points="44.7596 12.0287 41.2016 12.6157 44.3876 14.2967 43.8606 17.8547 46.4406 15.3327 49.6666 16.9357 48.0626 13.7097 50.6056 11.1497 47.0276 11.6777 45.3656 8.4707"></polygon>
				</g>
			</g>
		</g>
	</g>
	<g id="icon-online-course">
		<g transform="translate(-1102.000000, -744.000000)">
			<g id="Row-1" transform="translate(240.000000, 713.000000)">
				<g id="Course-2" transform="translate(484.000000, 0.000000)">
					<path d="M417.846,31 C418.767,31 419.513,31.747 419.513,32.667 L419.513,32.667 L419.513,59.565 C419.513,60.485 418.767,61.232 417.846,61.232 L417.846,61.232 L400.214,61.232 L400.214,66.14 L407.878,66.14 C408.572,66.14 409.134,66.702 409.134,67.395 C409.134,68.089 408.572,68.651 407.878,68.651 L407.878,68.651 L390.074,68.651 C389.381,68.651 388.819,68.089 388.819,67.395 C388.819,66.702 389.381,66.14 390.074,66.14 L390.074,66.14 L397.702,66.14 L397.702,61.232 L379.667,61.232 C378.747,61.232 378,60.485 378,59.565 L378,59.565 L378,32.667 C378,31.747 378.747,31 379.667,31 L379.667,31 Z M416.969,33.599 L381.002,33.599 C380.957,33.599 380.92,33.636 380.92,33.681 L380.92,33.681 L380.92,57.374 C380.92,57.419 380.957,57.456 381.002,57.456 L381.002,57.456 L416.969,57.456 C417.014,57.456 417.051,57.419 417.051,57.374 L417.051,57.374 L417.051,33.681 C417.051,33.636 417.014,33.599 416.969,33.599 L416.969,33.599 Z M398.6325,35.6047 C403.8195,35.6047 408.0275,39.8127 408.0275,44.9997 C408.0275,50.1877 403.8195,54.3957 398.6325,54.3957 C393.4455,54.3957 389.2375,50.1877 389.2375,44.9997 C389.2375,39.8127 393.4455,35.6047 398.6325,35.6047 Z M398.6325,38.3447 C394.9625,38.3447 391.9775,41.3297 391.9775,44.9997 C391.9775,48.6707 394.9625,51.6547 398.6325,51.6547 C402.3025,51.6547 405.2875,48.6707 405.2875,44.9997 C405.2875,41.3297 402.3025,38.3447 398.6325,38.3447 Z M399.8065,40.3027 C400.0275,40.3027 400.1985,40.4737 400.1985,40.6937 L400.1985,46.1747 C400.1985,46.3947 400.0275,46.5657 399.8065,46.5657 L395.8915,46.5657 C395.6725,46.5657 395.5005,46.3947 395.5005,46.1747 L395.5005,45.3917 C395.5005,45.1717 395.6725,44.9997 395.8915,44.9997 L398.6325,44.9997 L398.6325,40.6937 C398.6325,40.4737 398.8035,40.3027 399.0235,40.3027 L399.8065,40.3027 Z" id="schedOnline-icon"></path>
				</g>
			</g>
		</g>
	</g>
	<g id="icon-phone" stroke="none" stroke-width="1" fill="none" fill-rule="evenodd" viewBox="0 0 32 32">
		<g id="NECA_Chapter-Detail" transform="translate(-804.000000, -1060.000000)" fill="#014598" fill-rule="nonzero">
			<path d="M823.236274,1060.95949 L819.181693,1060.02381 C818.741147,1059.92245 818.288905,1060.15247 818.109568,1060.56572 L816.238223,1064.9322 C816.07448,1065.31426 816.183642,1065.7626 816.507229,1066.02381 L818.869802,1067.95754 C817.466293,1070.94779 815.014051,1073.43512 811.96142,1074.86592 L810.027697,1072.50335 C809.762589,1072.17976 809.318145,1072.0706 808.936079,1072.23434 L804.569607,1074.10568 C804.152453,1074.28892 803.922433,1074.74116 804.023798,1075.18171 L804.95947,1079.23629 C805.056936,1079.65734 805.431205,1079.96144 805.871751,1079.96144 C815.856157,1079.96144 823.96142,1071.87177 823.96142,1061.87177 C823.96142,1061.43512 823.661225,1061.05695 823.236274,1060.95949 Z" id="phone"></path>
		</g>
	</g>
	<g id="icon-search" stroke="none" stroke-width="1" fill="none" fill-rule="evenodd">
		<g id="NECA_Programs---TopIssues-List" transform="translate(-1379.000000, -616.000000)" fill="#313275">
			<g id="filters" transform="translate(504.000000, 598.000000)">
				<g id="keyword-search" transform="translate(620.000000, 7.000000)">
					<path d="M264.764476,14.4023408 C261.338667,14.4023408 258.551053,17.0739064 258.551053,20.357099 C258.551053,23.6402916 261.338667,26.3118573 264.764476,26.3118573 C268.190284,26.3118573 270.977898,23.6402916 270.977898,20.357099 C270.977898,17.0739064 268.190284,14.4023408 264.764476,14.4023408 M277.224473,34 C276.753885,34 276.295269,33.8137759 275.976632,33.495165 L270.298262,28.0664236 C268.675607,29.1431696 266.734316,29.7150806 264.764476,29.7150806 C259.369748,29.7150806 255,25.5272448 255,20.357099 C255,15.1869532 259.369748,11 264.764476,11 C270.159203,11 274.528951,15.1869532 274.528951,20.357099 C274.528951,22.2449348 273.932198,24.1054106 272.80868,25.6605142 L278.486129,31.1024942 C278.805687,31.4078665 279,31.8465081 279,32.2983883 C279,33.2427475 278.209854,34 277.224473,34" id="search_icon"></path>
				</g>
			</g>
		</g>
	</g>
	<path id="icon-video" viewBox="0 0 32 32" d="M12 2c5.514 0 10 4.486 10 10s-4.486 10-10 10-10-4.486-10-10 4.486-10 10-10zm0-2c-6.627 0-12 5.373-12 12s5.373 12 12 12 12-5.373 12-12-5.373-12-12-12zm-3 17v-10l9 5.146-9 4.854z"/>
	<g id="icon-youtube" stroke="none" stroke-width="1" fill="none" fill-rule="evenodd" viewBox="0 0 32 32">
		<g id="NECA_About-Us---alt" transform="translate(-899.000000, -2406.000000)" fill="#FFFFFF">
			<g id="Mission-&amp;-History" transform="translate(0.000000, 1953.000000)">
				<path d="M978.999805,494.098733 L947.000117,477 L947.000117,511 L978.999805,494.098733 Z M1000.98672,454.203984 C1003.32994,454.469568 1008.48768,454.469568 1013.03628,459.267798 C1013.03628,459.267798 1016.72229,462.870896 1017.79386,471.135006 C1019.06551,480.797861 1018.99941,490.465142 1018.99941,490.465142 L1018.99941,499.534858 C1018.99941,499.534858 1019.06551,509.197713 1017.79386,518.864994 C1016.72229,527.067134 1013.03628,530.732202 1013.03628,530.732202 C1008.48768,535.464035 1003.32994,535.464035 1000.98672,535.734046 C1000.98672,535.734046 984.246277,537 959,537 C927.795637,536.729989 918.218237,535.796016 918.218237,535.796016 C915.541545,535.331243 909.512318,535.464035 904.963719,530.732202 C904.963719,530.732202 901.277709,527.067134 900.206143,518.864994 C898.934492,509.197713 899.000586,499.534858 899.000586,499.534858 L899.000586,490.465142 C899.000586,490.465142 898.934492,480.797861 900.206143,471.135006 C901.277709,462.870896 904.963719,459.267798 904.963719,459.267798 C909.512318,454.469568 914.670063,454.469568 917.013281,454.203984 C917.013281,454.203984 933.753723,453 959,453 C984.246277,453 1000.98672,454.203984 1000.98672,454.203984 L1000.98672,454.203984 Z" id="Fill-1"></path>
			</g>
		</g>
	</g>
	<g id="icon-webinar">
		<g id="NECA_Programs---TopIssues-List" transform="translate(-1098.000000, -1141.000000)" fill="#FFFFFF">
			<g id="Row-1-Copy" transform="translate(240.000000, 1113.000000)">
				<g id="Course-2" transform="translate(484.000000, 0.000000)">
					<g id="Group-15" transform="translate(374.000000, 28.000000)">
						<path d="M50.039,35.0604 L50.039,37.5634 C50.039,38.9434 48.163,40.0644 45.869,40.0644 L45.869,40.0644 L4.17,40.0644 C1.876,40.0644 3.00559577e-12,38.9434 3.00559577e-12,37.5634 L3.00559577e-12,37.5634 L3.00559577e-12,35.0604 L50.039,35.0604 Z M27.105,36.7284 L22.934,36.7284 C22.7,36.7284 22.518,36.9114 22.518,37.1464 C22.518,37.3804 22.7,37.5634 22.934,37.5634 L22.934,37.5634 L27.105,37.5634 C27.339,37.5634 27.522,37.3804 27.522,37.1464 C27.522,36.9114 27.339,36.7284 27.105,36.7284 L27.105,36.7284 Z M46.0577,-0.0002 C48.0317,-0.0002 49.6377,1.6058 49.6377,3.5808 L49.6377,3.5808 L49.6377,14.6688 C49.6377,16.6428 48.0317,18.2488 46.0577,18.2488 L46.0577,18.2488 L43.3667,18.2488 L43.3667,29.2218 C43.3667,31.5168 41.4907,33.3928 39.1977,33.3928 L39.1977,33.3928 L10.8417,33.3928 C8.5487,33.3928 6.6717,31.5168 6.6717,29.2218 L6.6717,29.2218 L6.6717,10.8758 C6.6717,8.5808 8.5487,6.7048 10.8417,6.7048 L10.8417,6.7048 L26.4867,6.7048 L26.4867,3.5808 C26.4867,1.6058 28.0927,-0.0002 30.0667,-0.0002 L30.0667,-0.0002 Z M26.5727,9.4598 L10.0187,9.4598 C9.5507,9.4598 9.1367,9.8728 9.1367,10.3428 L9.1367,10.3428 L9.1367,29.7538 C9.1367,30.2248 9.5507,30.6378 10.0187,30.6378 L10.0187,30.6378 L40.0207,30.6378 C40.4887,30.6378 40.9027,30.2248 40.9027,29.7538 L40.9027,29.7538 L40.9027,18.1448 L40.3167,18.1448 L34.9867,23.0098 C34.7387,23.2368 34.4187,23.3568 34.0947,23.3568 C33.9147,23.3568 33.7337,23.3188 33.5617,23.2438 C33.0817,23.0318 32.7727,22.5578 32.7727,22.0338 L32.7727,22.0338 L32.7727,18.1448 L30.3607,18.1448 C28.2717,18.1448 26.5727,16.4448 26.5727,14.3568 L26.5727,14.3568 L26.5727,9.4598 Z M19.388,12.1338 C22.603,12.1338 24.429,14.5728 24.572,16.9818 C24.719,19.4398 23.578,20.3418 22.896,20.8818 C22.854,20.9148 22.805,20.9538 22.756,20.9938 C22.889,21.0438 23.031,21.0948 23.154,21.1388 C24.68,21.6848 27.518,22.7018 27.597,25.9468 C27.618,26.7948 27.63,27.2708 27.637,27.5258 C27.641,27.5588 27.643,27.5928 27.644,27.6278 C27.645,27.6658 27.645,27.7038 27.643,27.7398 C27.644,27.7578 27.644,27.7708 27.645,27.7788 L27.642,27.7788 C27.588,28.7638 26.827,28.8328 26.668,28.8358 C26.639,28.8368 26.611,28.8368 26.584,28.8368 C25.972,28.8368 25.765,28.6688 25.676,27.8248 L25.647,27.8248 L25.644,27.6648 C25.644,27.6178 25.646,27.5708 25.651,27.5248 C25.626,27.1368 25.613,26.6368 25.598,25.9958 C25.556,24.2598 24.221,23.6448 22.48,23.0218 C21.508,22.6738 20.59,22.3448 20.53,21.3828 C20.459,20.2598 21.179,19.6908 21.655,19.3138 C22.217,18.8688 22.66,18.5178 22.576,17.1008 C22.491,15.6718 21.457,14.1338 19.388,14.1338 C17.451,14.1338 16.226,15.6998 16.202,17.1508 C16.181,18.4188 16.779,18.9458 17.412,19.5038 C17.911,19.9448 18.477,20.4438 18.526,21.2598 C18.596,22.4298 17.444,22.8478 16.427,23.2178 C14.791,23.8128 13.722,24.3078 13.783,25.7188 C13.841,27.0838 13.865,27.3858 13.871,27.4428 C13.923,27.9838 13.535,28.4748 12.995,28.5398 C12.456,28.6078 11.962,28.2318 11.886,27.6918 C11.862,27.5178 11.817,26.5698 11.785,25.8048 C11.657,22.8228 14.316,21.8568 15.744,21.3378 C15.902,21.2798 16.087,21.2128 16.252,21.1478 C16.197,21.0998 16.14,21.0488 16.089,21.0038 C15.37,20.3698 14.166,19.3078 14.202,17.1178 C14.248,14.3698 16.575,12.1338 19.388,12.1338 Z M46.0577,2.4998 L30.0667,2.4998 C29.4707,2.4998 28.9867,2.9848 28.9867,3.5808 L28.9867,3.5808 L28.9867,14.6688 C28.9867,15.2648 29.4707,15.7488 30.0667,15.7488 L30.0667,15.7488 L33.5967,15.7488 C34.2877,15.7488 34.8467,16.3088 34.8467,16.9988 L34.8467,16.9988 L34.8467,19.0908 L38.1497,16.0758 C38.3807,15.8648 38.6807,15.7488 38.9927,15.7488 L38.9927,15.7488 L46.0577,15.7488 C46.6537,15.7488 47.1377,15.2648 47.1377,14.6688 L47.1377,14.6688 L47.1377,3.5808 C47.1377,2.9848 46.6537,2.4998 46.0577,2.4998 L46.0577,2.4998 Z M37.9693,7.9716 C38.6373,7.9716 39.1783,8.5126 39.1783,9.1806 C39.1783,9.8486 38.6373,10.3896 37.9693,10.3896 C37.3023,10.3896 36.7603,9.8486 36.7603,9.1806 C36.7603,8.5126 37.3023,7.9716 37.9693,7.9716 Z M33.5738,7.9716 C34.2418,7.9716 34.7838,8.5126 34.7838,9.1806 C34.7838,9.8486 34.2418,10.3896 33.5738,10.3896 C32.9068,10.3896 32.3648,9.8486 32.3648,9.1806 C32.3648,8.5126 32.9068,7.9716 33.5738,7.9716 Z M42.481,7.9716 C43.149,7.9716 43.69,8.5126 43.69,9.1806 C43.69,9.8486 43.149,10.3896 42.481,10.3896 C41.814,10.3896 41.272,9.8486 41.272,9.1806 C41.272,8.5126 41.814,7.9716 42.481,7.9716 Z" id="webinar-icon"></path>
					</g>
				</g>
			</g>
		</g>
	</g>
	<g id="icon-scheduled-online">
		<g id="NECA_Programs---TopIssues-List" transform="translate(-1102.000000, -744.000000)">
			<g id="Row-1" transform="translate(240.000000, 713.000000)">
				<g id="Course-2" transform="translate(484.000000, 0.000000)">
					<path d="M417.846,31 C418.767,31 419.513,31.747 419.513,32.667 L419.513,32.667 L419.513,59.565 C419.513,60.485 418.767,61.232 417.846,61.232 L417.846,61.232 L400.214,61.232 L400.214,66.14 L407.878,66.14 C408.572,66.14 409.134,66.702 409.134,67.395 C409.134,68.089 408.572,68.651 407.878,68.651 L407.878,68.651 L390.074,68.651 C389.381,68.651 388.819,68.089 388.819,67.395 C388.819,66.702 389.381,66.14 390.074,66.14 L390.074,66.14 L397.702,66.14 L397.702,61.232 L379.667,61.232 C378.747,61.232 378,60.485 378,59.565 L378,59.565 L378,32.667 C378,31.747 378.747,31 379.667,31 L379.667,31 Z M416.969,33.599 L381.002,33.599 C380.957,33.599 380.92,33.636 380.92,33.681 L380.92,33.681 L380.92,57.374 C380.92,57.419 380.957,57.456 381.002,57.456 L381.002,57.456 L416.969,57.456 C417.014,57.456 417.051,57.419 417.051,57.374 L417.051,57.374 L417.051,33.681 C417.051,33.636 417.014,33.599 416.969,33.599 L416.969,33.599 Z M398.6325,35.6047 C403.8195,35.6047 408.0275,39.8127 408.0275,44.9997 C408.0275,50.1877 403.8195,54.3957 398.6325,54.3957 C393.4455,54.3957 389.2375,50.1877 389.2375,44.9997 C389.2375,39.8127 393.4455,35.6047 398.6325,35.6047 Z M398.6325,38.3447 C394.9625,38.3447 391.9775,41.3297 391.9775,44.9997 C391.9775,48.6707 394.9625,51.6547 398.6325,51.6547 C402.3025,51.6547 405.2875,48.6707 405.2875,44.9997 C405.2875,41.3297 402.3025,38.3447 398.6325,38.3447 Z M399.8065,40.3027 C400.0275,40.3027 400.1985,40.4737 400.1985,40.6937 L400.1985,46.1747 C400.1985,46.3947 400.0275,46.5657 399.8065,46.5657 L395.8915,46.5657 C395.6725,46.5657 395.5005,46.3947 395.5005,46.1747 L395.5005,45.3917 C395.5005,45.1717 395.6725,44.9997 395.8915,44.9997 L398.6325,44.9997 L398.6325,40.6937 C398.6325,40.4737 398.8035,40.3027 399.0235,40.3027 L399.8065,40.3027 Z" id="schedOnline-icon"></path>
				</g>
			</g>
		</g>
	</g>
	<g id="icon-globe">
		<g id="NECA_Events-Landing" transform="translate(-622.000000, -1241.000000)">
			<g id="Listing" transform="translate(247.000000, 745.000000)">
				<g id="Row" transform="translate(0.000000, 464.000000)">
					<g id="globe-americas" transform="translate(375.000000, 32.000000)">
						<path d="M23,0 C10.2971371,0 0,10.2971371 0,23 C0,35.7028629 10.2971371,46 23,46 C35.7028629,46 46,35.7028629 46,23 C46,10.2971371 35.7028629,0 23,0 Z M30.6317339,33.1645161 C30.2700403,33.5243548 29.8907258,33.9018145 29.5828226,34.2106452 C29.3055242,34.488871 29.1098387,34.8320161 29.0106048,35.2039113 C28.8705645,35.7288306 28.7574194,36.2593145 28.5682258,36.7684677 L26.9554435,41.1134274 C25.6793145,41.3916532 24.3586694,41.5483871 23,41.5483871 L23,39.0091129 C23.1567339,37.8387097 22.2914516,35.6462903 20.90125,34.2560887 C20.3447984,33.6996371 20.0322581,32.9447177 20.0322581,32.1573387 L20.0322581,29.1886694 C20.0322581,28.1091532 19.4507661,27.1168145 18.5057258,26.5946774 C17.1730242,25.857379 15.277379,24.8270161 13.9789919,24.1731855 C12.9143145,23.6371371 11.9293952,22.9545565 11.0437097,22.1560484 L10.9695161,22.0892742 C10.3361475,21.5175542 9.7738065,20.8717651 9.29459677,20.1658065 C8.42467742,18.88875 7.00758065,16.7881452 6.08665323,15.4229839 C7.98508065,11.2032258 11.4063306,7.81443548 15.657621,5.97350806 L17.8843548,7.08733871 C18.871129,7.58072581 20.0322581,6.86383065 20.0322581,5.76020161 L20.0322581,4.71221774 C20.7732661,4.59258065 21.5272581,4.51653226 22.2942339,4.48778226 L24.9188306,7.11237903 C25.4984677,7.69201613 25.4984677,8.63149194 24.9188306,9.21112903 L24.483871,9.64516129 L23.5249194,10.6041129 C23.2355645,10.8934677 23.2355645,11.3636694 23.5249194,11.6530242 L23.959879,12.0879839 C24.2492339,12.3773387 24.2492339,12.8475403 23.959879,13.1368952 L23.2179435,13.8788306 C23.0786383,14.017866 22.8898408,14.0959201 22.6930242,14.0958468 L21.8592742,14.0958468 C21.666371,14.0958468 21.4808871,14.1709677 21.3417742,14.306371 L20.4217742,15.2013306 C20.1903799,15.4266592 20.1311434,15.7757046 20.2752419,16.0647581 L21.7210887,18.957379 C21.9677823,19.4507661 21.608871,20.0313306 21.0579839,20.0313306 L20.5349194,20.0313306 C20.3559274,20.0313306 20.1834274,19.9664113 20.0489516,19.8495565 L19.1883065,19.1020565 C18.7920753,18.7583152 18.243925,18.6490376 17.7461694,18.8145565 L14.8554032,19.7781452 C14.4027862,19.9290653 14.0975581,20.3527234 14.0977016,20.8298387 C14.0977016,21.2499597 14.335121,21.6329839 14.7107258,21.82125 L15.7383065,22.3350403 C16.6110081,22.7718548 17.5736694,22.9990726 18.5493145,22.9990726 C19.5249597,22.9990726 20.6443548,25.53 21.5170565,25.9668145 L27.7075806,25.9668145 C28.4949597,25.9668145 29.2489516,26.2793548 29.8063306,26.8358065 L31.0759677,28.1054435 C31.6063761,28.6360546 31.9041533,29.3556331 31.9041533,30.1058871 C31.9037683,31.2540991 31.4458551,32.3548264 30.6317339,33.1645161 Z M38.6733871,24.6925403 C38.1364113,24.5580645 37.6680645,24.2288306 37.3610887,23.7679032 L35.6935887,21.2666532 C35.1946389,20.5193525 35.1946389,19.5451636 35.6935887,18.7978629 L37.5104032,16.0731048 C37.7255645,15.7512903 38.0204839,15.4897581 38.3673387,15.3172581 L39.571129,14.7153629 C40.825,17.2119758 41.5483871,20.0202016 41.5483871,23 C41.5483871,23.8040726 41.4797581,24.5914516 41.3795968,25.368629 L38.6733871,24.6925403 Z" id="icon-natl-event"></path>
					</g>
				</g>
			</g>
		</g>
	</g>
	<g id="icon-event">
		<g id="NECA_Govt-Affairs" transform="translate(-1595.000000, -4375.000000)">
			<g id="Resources" transform="translate(0.000000, 3707.000000)">
				<g id="Bitmap" transform="translate(1219.000000, 644.000000)">
					<path d="M389.243154,24 C391.671487,24 393.657538,25.9619048 393.657538,28.3619048 L393.657538,30.977381 L404.251821,30.977381 L404.251821,28.3619048 C404.251821,25.9619048 406.236667,24 408.666205,24 L410.430513,24 C412.858846,24 414.844897,25.9619048 414.844897,28.3619048 L414.844897,30.977381 L418.375923,30.977381 C420.308949,30.977381 421.908154,32.5571429 421.908154,34.4654762 L421.908154,69.3488095 C421.908154,71.2571429 420.308949,72.8369048 418.375923,72.8369048 L379.532231,72.8369048 C377.599205,72.8369048 376,71.2571429 376,69.3488095 L376,34.4654762 C376,32.5571429 377.599205,30.977381 379.532231,30.977381 L383.063256,30.977381 L383.063256,28.3619048 C383.063256,25.9619048 385.049308,24 387.478846,24 L389.243154,24 Z M418.375923,41.4416667 L379.532231,41.4416667 L379.532231,69.3488095 L418.375923,69.3488095 L418.375923,41.4416667 Z M400.081267,44.5080819 L402.547464,49.4943031 C402.722188,49.8489469 403.06101,50.0951946 403.454137,50.1529274 L408.967369,50.9517596 C409.955501,51.0955023 410.35099,52.306711 409.635568,53.00186 L405.646444,56.8840904 C405.361928,57.1597935 405.232066,57.5580314 405.299358,57.9480218 L406.241448,63.4290948 C406.409088,64.4117292 405.376095,65.159898 404.493033,64.6968581 L399.561819,62.1083118 C399.211192,61.9245097 398.790911,61.9245097 398.440284,62.1083118 L393.50907,64.6968581 C392.624828,65.159898 391.591835,64.4117292 391.760655,63.4290948 L392.702745,57.9480218 C392.770037,57.5580314 392.638995,57.1597935 392.355659,56.8840904 L388.365355,53.00186 C387.651114,52.306711 388.045422,51.0955023 389.033553,50.9517596 L394.547966,50.1529274 C394.939913,50.0951946 395.279915,49.8489469 395.454639,49.4943031 L397.920836,44.5080819 C398.362367,43.613814 399.639736,43.613814 400.081267,44.5080819 Z M410.430513,27.4892857 L408.666205,27.4892857 C408.169692,27.4892857 407.781641,27.8702381 407.781641,28.3619048 L407.781641,36.2095238 C407.781641,36.7011905 408.169692,37.0809524 408.666205,37.0809524 L410.430513,37.0809524 C410.928231,37.0809524 411.313872,36.7011905 411.313872,36.2095238 L411.313872,28.3619048 C411.313872,27.8702381 410.928231,27.4892857 410.430513,27.4892857 Z M389.243154,27.4892857 L387.478846,27.4892857 C386.981128,27.4892857 386.594282,27.8702381 386.594282,28.3619048 L386.594282,36.2095238 C386.594282,36.7011905 386.981128,37.0809524 387.478846,37.0809524 L389.243154,37.0809524 C389.739667,37.0809524 390.126513,36.7011905 390.126513,36.2095238 L390.126513,28.3619048 C390.126513,27.8702381 389.739667,27.4892857 389.243154,27.4892857 Z" id="event-icon"></path>
				</g>
			</g>
		</g>
	</g>
	<g id="icon-staff">
		<g>
			<g>
				<g>
					<path d="M24.865,20.34c-1.744,0-3.382-1.095-4.002-2.743c-0.648-1.714-0.145-3.652,1.25-4.845
					c1.347-1.153,3.354-1.318,4.884-0.436c1.522,0.872,2.395,2.655,2.113,4.399C28.771,18.809,26.958,20.311,24.865,20.34
					c-1.25,0.019-1.25,1.957,0,1.938c2.665-0.029,5.011-1.705,5.892-4.225c0.843-2.403,0.028-5.243-1.967-6.833
					c-2.025-1.618-4.903-1.869-7.152-0.513c-2.248,1.366-3.372,4.012-2.877,6.589c0.552,2.859,3.207,4.972,6.095,4.972
					C26.115,22.278,26.115,20.34,24.865,20.34z"/>
				</g>
			</g>
			<g>
				<g>
					<path d="M16.657,35.438c0-1.396-0.009-2.781,0-4.177c0.02-2.568,1.755-4.69,4.07-5.776c1.183-0.561,2.491-0.775,3.799-0.775
					c1.221,0,2.394,0.058,3.575,0.436c2.413,0.775,4.479,2.724,4.895,5.271c0.125,0.785,0.057,1.726,0.057,2.559
					c0,0.824,0,1.647,0,2.471c0,1.251,1.938,1.251,1.938,0c0-1.569,0.109-3.177-0.019-4.738c-0.26-3.101-2.373-5.727-5.184-6.977
					c-5.3-2.355-13.401-0.523-14.855,5.805c-0.242,1.057-0.203,2.122-0.203,3.197c0,0.901,0,1.802,0,2.704
					C14.719,36.688,16.657,36.688,16.657,35.438L16.657,35.438z"/>
				</g>
			</g>
		</g>
		<g>
			<g>
				<g>
					<g>
						<path d="M10.137,23.634c-1.261,0-2.433-0.785-2.897-1.958c-0.495-1.239-0.126-2.665,0.881-3.527
						c0.969-0.833,2.413-0.979,3.518-0.358c1.114,0.621,1.753,1.871,1.599,3.14C13.043,22.481,11.667,23.616,10.137,23.634
						c-1.25,0.019-1.25,1.957,0,1.938c2.189-0.039,4.118-1.424,4.806-3.508c0.639-1.927-0.03-4.186-1.608-5.455
						c-1.658-1.328-4.022-1.532-5.834-0.408c-1.822,1.125-2.713,3.266-2.307,5.359c0.456,2.307,2.617,4.002,4.943,4.002
						C11.376,25.572,11.386,23.634,10.137,23.634z"/>
					</g>
				</g>
				<g>
					<g>
						<path d="M4.021,35.583c0-0.805,0-1.6,0-2.404c0-0.92-0.009-1.772,0.388-2.596c0.563-1.192,1.608-2.094,2.81-2.607
						c1.172-0.504,2.452-0.563,3.702-0.495c1.763,0.088,3.401,0.893,4.515,2.269c0.33,0.407,1.027,0.34,1.366,0
						c0.408-0.407,0.33-0.959,0-1.366c-2.151-2.674-6.124-3.431-9.332-2.529c-3.09,0.861-5.387,3.47-5.387,6.734
						c0,0.999,0,2.007,0,3.004C2.083,36.833,4.021,36.833,4.021,35.583L4.021,35.583z"/>
					</g>
				</g>
			</g>
			<g>
				<g>
					<g>
						<path d="M39.653,23.664c-1.26,0-2.432-0.785-2.897-1.958c-0.494-1.241-0.127-2.665,0.882-3.527
						c0.969-0.833,2.413-0.979,3.517-0.358c1.115,0.619,1.754,1.869,1.6,3.14C42.561,22.501,41.194,23.634,39.653,23.664
						c-1.25,0.019-1.25,1.957,0,1.938c2.188-0.039,4.117-1.425,4.805-3.508c0.641-1.929-0.028-4.187-1.606-5.456
						c-1.657-1.327-4.022-1.53-5.836-0.407c-1.819,1.124-2.713,3.265-2.304,5.359c0.454,2.305,2.616,4.001,4.941,4.001
						C40.904,25.602,40.904,23.664,39.653,23.664z"/>
					</g>
				</g>
				<g>
					<g>
						<path d="M34.391,29.808c0.98-1.241,2.385-2.025,3.954-2.258c1.184-0.175,2.528-0.117,3.663,0.223
						c1.269,0.377,2.45,1.173,3.15,2.296c0.551,0.882,0.678,1.754,0.678,2.781c0,0.922,0,1.842,0,2.752c0,1.25,1.938,1.25,1.938,0
						c0-2.121,0.271-4.389-0.825-6.308c-1.666-2.937-5.136-4.012-8.333-3.722c-2.15,0.194-4.245,1.143-5.602,2.858
						c-0.318,0.408-0.396,0.97,0,1.366C33.355,30.146,34.062,30.224,34.391,29.808L34.391,29.808z"/>
					</g>
				</g>
			</g>
		</g>
	</g>
	<g id="icon-labor-relations">
		<path d="M38.281,34.167c-0.066,0.398-0.266,0.796-0.398,1.194c-0.199,0.332-0.332,0.729-0.531,1.128l4.313,4.312l-5.971,6.038
		l-4.379-4.313c-0.398,0.198-0.73,0.331-1.129,0.53c-0.398,0.133-0.795,0.266-1.193,0.398v6.17h-8.559v-6.17
		c-0.398-0.133-0.795-0.266-1.194-0.398c-0.332-0.199-0.73-0.332-1.128-0.53l-4.378,4.313l-5.971-6.038l4.313-4.312
		c-0.199-0.398-0.332-0.796-0.531-1.128c-0.132-0.398-0.265-0.796-0.397-1.194h-6.17V30.85H3.781H3.715
		c-0.996,0-1.924-0.398-2.587-1.062l0,0C0.398,29.059,0,28.13,0,27.135l0,0c0-1.062,0.398-1.991,1.128-2.654
		c0.464-0.531,1.128-0.863,1.791-1.062C3.185,17.78,5.573,12.671,9.288,8.89c2.853-2.853,6.435-4.843,10.416-5.838V0.995V0h0.995
		h8.027h0.996v0.995v2.057c3.98,0.995,7.563,2.986,10.416,5.838c3.715,3.781,6.168,8.89,6.367,14.529
		c0.664,0.199,1.328,0.53,1.793,1.062c0.729,0.663,1.127,1.592,1.127,2.654l0,0c0,0.995-0.398,1.99-1.127,2.653l0,0
		c-0.664,0.663-1.594,1.062-2.588,1.062h-0.066h-1.193v3.317H38.281z M6.9,30.85v1.394h5.705l0.199,0.663
		c0.133,0.598,0.332,1.128,0.531,1.659c0.199,0.597,0.464,1.061,0.796,1.592l0.332,0.663l-3.98,3.98l3.251,3.318l4.046-4.048
		l0.664,0.398c0.465,0.331,0.995,0.597,1.592,0.796c0.531,0.199,1.062,0.398,1.593,0.531l0.729,0.198v5.706h4.711v-5.706l0.73-0.198
		c0.529-0.133,1.127-0.332,1.658-0.531s1.061-0.465,1.525-0.796l0.664-0.398l4.047,4.048l3.25-3.318l-3.98-3.98l0.332-0.663
		c0.332-0.531,0.598-0.995,0.795-1.592c0.266-0.531,0.398-1.062,0.598-1.659l0.133-0.663h5.705V30.85H32.84v0.066
		c-0.199,1.791-0.996,3.45-2.322,4.777c-1.525,1.525-3.648,2.388-5.771,2.388c-2.189,0-4.313-0.862-5.838-2.388
		c-1.261-1.327-2.124-2.986-2.322-4.777V30.85H6.9z M30.916,30.85h-2.389v0.066c-0.199,0.664-0.531,1.261-1.061,1.725
		c-0.73,0.73-1.726,1.194-2.721,1.194c-1.062,0-2.057-0.464-2.787-1.194c-0.53-0.464-0.862-1.061-1.062-1.725V30.85H18.51
		c0.199,1.327,0.796,2.521,1.791,3.45c1.128,1.193,2.72,1.857,4.445,1.857c1.658,0,3.25-0.664,4.445-1.857
		C30.119,33.371,30.717,32.177,30.916,30.85z M26.471,30.85h-3.516c0.133,0.199,0.199,0.332,0.332,0.465
		c0.398,0.398,0.863,0.597,1.46,0.597c0.531,0,0.995-0.198,1.393-0.597C26.271,31.182,26.404,31.049,26.471,30.85z M29.723,5.108
		v10.084c0,1.393-0.598,2.654-1.461,3.582l0,0c-0.928,0.863-2.189,1.46-3.516,1.46l0,0c-1.393,0-2.654-0.597-3.583-1.46l0,0
		c-0.863-0.928-1.459-2.189-1.459-3.582V5.108c-0.796,0.199-1.593,0.464-2.388,0.796v13.334c0,0.531-0.464,0.996-0.996,0.996
		c-0.531,0-0.995-0.464-0.995-0.996V6.833c-1.725,0.929-3.25,2.057-4.644,3.45c-3.317,3.383-5.506,7.961-5.771,13.004h19.836h19.77
		c-0.266-5.042-2.387-9.621-5.771-13.004c-1.393-1.393-2.918-2.521-4.645-3.45v12.406c0,0.531-0.463,0.996-0.994,0.996
		s-0.996-0.464-0.996-0.996V5.905C31.314,5.573,30.518,5.308,29.723,5.108z M45.645,25.343H3.781c-0.53,0-0.929,0.199-1.26,0.531
		c-0.332,0.332-0.531,0.729-0.531,1.261l0,0c0,0.464,0.199,0.929,0.531,1.26c0.332,0.332,0.73,0.531,1.26,0.531h41.863
		c0.529,0,0.994-0.199,1.26-0.531l0,0c0.332-0.331,0.531-0.796,0.531-1.26l0,0c0-0.531-0.199-0.929-0.531-1.261
		C46.639,25.542,46.174,25.343,45.645,25.343z M27.732,1.99h-6.038v13.203c0,0.863,0.332,1.592,0.862,2.189l0,0
		c0.597,0.53,1.327,0.862,2.189,0.862l0,0c0.795,0,1.592-0.332,2.123-0.862l0,0c0.531-0.597,0.863-1.327,0.863-2.189V1.99z"/>
	</g>
	<g id="icon-code-standards">
		<path d="M14.713623,46.1333008h15.3050537C30.5214844,51.105835,34.7313232,55,39.8342285,55  c5.4404297,0,9.8662109-4.4262695,9.8662109-9.8666992c0-5.1029053-3.8936768-9.3127441-8.8662109-9.8155518V9.4135742  C40.8342285,6.9799805,38.854248,5,36.420166,5H22.2380371c-0.1335449,0-0.2640991,0.0272217-0.3850098,0.0777588  c-0.1213379,0.0507202-0.230835,0.1239014-0.3223267,0.2155151L10.5928345,16.2306519  c-0.0916138,0.0914917-0.1647949,0.2009888-0.2155151,0.3223267c-0.0505371,0.1209106-0.0777588,0.2514648-0.0777588,0.3850098  v24.7817383C10.2995605,44.1533203,12.279541,46.1333008,14.713623,46.1333008z M47.7004395,45.1333008  C47.7004395,49.4711914,44.1716309,53,39.8342285,53s-7.8662109-3.5288086-7.8662109-7.8666992  c0-4.3374023,3.5288086-7.8662109,7.8662109-7.8662109S47.7004395,40.7958984,47.7004395,45.1333008z M38.8342285,9.4135742  V35.317749c-2.5762329,0.260498-4.8569336,1.5211792-6.4625244,3.3804932H15.9372559c-0.5522461,0-1,0.4477539-1,1s0.4477539,1,1,1  h15.0959473c-0.5327759,1.0528564-0.8905029,2.2087402-1.0145264,3.4350586H14.713623  c-1.3310547,0-2.4140625-1.0825195-2.4140625-2.4135742V17.9379883h6.5244141c2.434082,0,4.4140625-1.9799805,4.4140625-4.4135742V7  H36.420166C37.7512207,7,38.8342285,8.0825195,38.8342285,9.4135742z M13.7136841,15.9379883l7.524353-7.5239868v5.1104126  c0,1.3310547-1.0830078,2.4135742-2.4140625,2.4135742H13.7136841z"></path>
		<path d="M15.9372559,21.3735352c-0.5522461,0-1,0.4477539-1,1s0.4477539,1,1,1h19.2592773c0.5522461,0,1-0.4477539,1-1  s-0.4477539-1-1-1H15.9372559z"></path>
		<path d="M35.1965332,27.1484375H15.9372559c-0.5522461,0-1,0.4477539-1,1s0.4477539,1,1,1h19.2592773c0.5522461,0,1-0.4477539,1-1  S35.7487793,27.1484375,35.1965332,27.1484375z"></path>
		<path d="M35.1965332,32.9233398H15.9372559c-0.5522461,0-1,0.4477539-1,1s0.4477539,1,1,1h19.2592773c0.5522461,0,1-0.4477539,1-1  S35.7487793,32.9233398,35.1965332,32.9233398z"></path>
		<path d="M37.229248,44.7197266c-0.390625-0.390625-1.0234375-0.390625-1.4140625,0s-0.390625,1.0234375,0,1.4140625  l2.0126953,2.0126953c0.1953125,0.1953125,0.4511719,0.2929688,0.7070313,0.2929688s0.5117188-0.0976563,0.7070313-0.2929688  l4.6118164-4.6118164c0.390625-0.390625,0.390625-1.0234375,0-1.4140625s-1.0234375-0.390625-1.4140625,0l-3.9047852,3.9047852  L37.229248,44.7197266z"></path>
	</g>
	<g id="icon-energy"><g><g><g><path d="M71.1,55.9c-0.6,0-1.2-0.5-1.2-1.2V47c0-0.6,0.5-1.2,1.2-1.2c0.6,0,1.2,0.5,1.2,1.2v7.8      C72.3,55.4,71.7,55.9,71.1,55.9z"></path></g><g><path d="M79.1,55.9c-0.6,0-1.2-0.5-1.2-1.2V47c0-0.6,0.5-1.2,1.2-1.2s1.2,0.5,1.2,1.2v7.8      C80.3,55.4,79.8,55.9,79.1,55.9z"></path></g></g><g><path d="M75.1,69.4c-5.3,0-9.6-4.3-9.6-9.6v-6.2h19.2v6.2C84.7,65.1,80.4,69.4,75.1,69.4z M67.9,55.9v3.9     c0,4,3.3,7.3,7.3,7.3s7.3-3.3,7.3-7.3v-3.9H67.9z"></path></g></g><g><g><path d="M86.4,34.2c-0.6,0-1.2-0.5-1.2-1.2V22.7h-4.7c-0.6,0-1.2-0.5-1.2-1.2v-9.1h-8.5v9.1     c0,0.6-0.5,1.2-1.2,1.2H65V33c0,0.6-0.5,1.2-1.2,1.2s-1.2-0.5-1.2-1.2V21.5c0-0.6,0.5-1.2,1.2-1.2h4.7v-9.1     c0-0.6,0.5-1.2,1.2-1.2h10.9c0.6,0,1.2,0.5,1.2,1.2v9.1h4.7c0.6,0,1.2,0.5,1.2,1.2V33C87.5,33.6,87,34.2,86.4,34.2z"></path></g><g><path d="M92.8,75.5h-13c-0.6,0-1.2-0.5-1.2-1.2s0.5-1.2,1.2-1.2h11.8v-39h-5.2c-0.6,0-1.2-0.5-1.2-1.2     c0-0.6,0.5-1.2,1.2-1.2h6.4c0.6,0,1.2,0.5,1.2,1.2v41.4C93.9,75,93.4,75.5,92.8,75.5z"></path></g><g><path d="M70.5,75.5h-13c-0.6,0-1.2-0.5-1.2-1.2V33c0-0.6,0.5-1.2,1.2-1.2h17.7c0.6,0,1.2,0.5,1.2,1.2     c0,0.6-0.5,1.2-1.2,1.2H58.6v39h11.8c0.6,0,1.2,0.5,1.2,1.2S71.1,75.5,70.5,75.5z"></path></g><g><path d="M75.1,12.4c-0.6,0-1.2-0.5-1.2-1.2V1.2C74,0.5,74.5,0,75.1,0s1.2,0.5,1.2,1.2v10.1     C76.3,11.9,75.8,12.4,75.1,12.4z"></path></g></g><g><path d="M38.9,100c-1,0-2.1-0.1-3-0.2C31.5,99.1,24.1,96,24.1,83v-8.6c0-0.6,0.5-1.2,1.2-1.2    c0.6,0,1.2,0.5,1.2,1.2V83c0,8.6,3.3,13.5,9.8,14.5c7.4,1.1,18.4-3.1,21.1-8.1c1.1-2.1,1-4.5-0.2-6.1c-1.1-1.4-2.9-1.9-5-1.4    c-2.2,0.5-4.1,2.1-4.9,4.3c-0.8,2-0.7,3.8,0.2,5.5c0.3,0.6,0.1,1.3-0.5,1.6c-0.6,0.3-1.3,0.1-1.6-0.5c-1.2-2.3-1.3-4.9-0.3-7.4    c1.1-2.9,3.6-5.1,6.6-5.8c3-0.7,5.7,0.1,7.4,2.3c1.8,2.3,1.9,5.8,0.4,8.6C56.6,95.7,47,100,38.9,100z"></path></g><g><path d="M58.6,99.9c-3.4,0-6.5-1-8.9-2.7c-0.5-0.4-0.7-1.1-0.3-1.6c0.4-0.5,1.1-0.7,1.6-0.3    c4.4,3.1,12,3.4,17.9-1.8c3.2-2.8,5-7,5-11.6V68.2c0-0.6,0.5-1.2,1.2-1.2s1.2,0.5,1.2,1.2V82c0,5.2-2.1,10-5.8,13.3    C66.8,98.5,62.5,99.9,58.6,99.9z"></path></g><g><g><g><path d="M26.4,70.4c-0.2,0-0.5,0-0.7,0c-0.2,0-0.3,0-0.5,0l-0.4,0c-2.2,0-5.6,0-8.4-3.3c-1.3-1.6-2-3.6-2-5.7      v-8.7c0-2.5-1-4.9-2.7-6.7c-3.6-3.6-5.7-8.5-5.7-13.6c0-5.3,2.2-10.4,6.1-14c3.2-3,7.3-4.8,11.7-5.1c0,0,0,0,0,0      c0.5,0,0.9,0,1.4,0l0,0c0,0,0,0,0,0h0c0,0,0,0,0,0c0,0,0,0,0,0c0.5,0,0.9,0,1.4,0c0,0,0,0,0,0c4.4,0.3,8.4,2.1,11.7,5.1      c3.9,3.6,6.1,8.7,6.1,14c0,5.1-2,10-5.7,13.6c-1.7,1.7-2.7,4.1-2.7,6.6v8.8c0,2.1-0.7,4.1-2,5.7C31.6,70.1,28.5,70.4,26.4,70.4z       M25.3,68c0.2,0,0.3,0,0.5,0c1.9,0,4.4,0.1,6.5-2.4c1-1.2,1.5-2.7,1.5-4.2v-8.7c0-3.1,1.2-6.2,3.4-8.3c3.2-3.2,5-7.4,5-12      c0-4.7-2-9.2-5.4-12.3c-3.2-3-7.2-4.5-11.5-4.5c-4.3,0-8.3,1.6-11.5,4.5c-3.4,3.2-5.4,7.7-5.4,12.3c0,4.5,1.8,8.8,5,12      c2.2,2.2,3.4,5.2,3.4,8.2v8.8c0,1.5,0.5,3,1.5,4.2c2,2.4,4.4,2.4,6.5,2.4L25.3,68C25.2,68,25.3,68,25.3,68L25.3,68z"></path></g><g><path d="M26.8,75.5h-3.1c-1.9,0-3.5-1.6-3.5-3.5v-2.8c0-0.6,0.5-1.2,1.2-1.2c0.6,0,1.2,0.5,1.2,1.2V72      c0,0.7,0.5,1.2,1.2,1.2h3.1c0.7,0,1.2-0.5,1.2-1.2v-2.8c0-0.6,0.5-1.2,1.2-1.2c0.6,0,1.2,0.5,1.2,1.2V72      C30.3,74,28.7,75.5,26.8,75.5z"></path></g></g><g><path d="M21,42.7c-0.3,0-0.6-0.1-0.8-0.3c-0.5-0.5-0.5-1.2,0-1.6l6.6-6.6h-8.5l10.5-10.4c0.5-0.5,1.2-0.5,1.6,0     c0.5,0.5,0.5,1.2,0,1.6l-6.5,6.5h8.5L21.8,42.3C21.6,42.6,21.3,42.7,21,42.7z"></path></g></g></g>
	<g id="icon-govt-affairs"> 
		<path d="M49.095,49.909H0.779C0.349,49.909,0,49.561,0,49.13v-3.117c0-0.431,0.349-0.779,0.779-0.779h48.315
		c0.431,0,0.779,0.349,0.779,0.779v3.117C49.874,49.561,49.525,49.909,49.095,49.909z M1.559,48.351h46.757v-1.559H1.559V48.351z"/>
		<path d="M35.847,46.792h-21.82c-0.43,0-0.779-0.349-0.779-0.779V31.985c0-0.431,0.349-0.779,0.779-0.779h21.82
		c0.431,0,0.779,0.349,0.779,0.779v14.027C36.626,46.443,36.277,46.792,35.847,46.792z M14.806,45.233h20.261V32.765H14.806V45.233z
		"/>
		<path d="M35.847,32.765h-21.82c-0.43,0-0.779-0.349-0.779-0.779v-6.234c0-0.348,0.23-0.653,0.565-0.75l10.91-3.117
		c0.14-0.04,0.289-0.04,0.429,0l10.91,3.117c0.334,0.096,0.564,0.402,0.564,0.75v6.234C36.626,32.416,36.277,32.765,35.847,32.765z
		 M14.806,31.206h20.261v-4.867l-10.13-2.895l-10.131,2.895V31.206z"/>
		<path d="M35.067,25.751h-1.559v-5.455H16.365v5.455h-1.559v-6.234c0-0.431,0.349-0.779,0.779-0.779h18.703
		c0.431,0,0.779,0.349,0.779,0.779V25.751z"/>
		<path d="M32.729,17.179H21.041v-1.559h10.91v-0.779c0-3.874-3.14-7.014-7.013-7.014s-7.014,3.14-7.014,7.014v0.779h1.559v1.559
		h-2.338c-0.43,0-0.779-0.349-0.779-0.779v-1.559c0-4.734,3.838-8.572,8.572-8.572s8.572,3.838,8.572,8.572V16.4
		C33.509,16.83,33.16,17.179,32.729,17.179z"/>
		<path d="M27.274,7.828h-1.558V4.71h-1.559v3.117h-1.559V3.931c0-0.43,0.349-0.779,0.779-0.779h3.118
		c0.43,0,0.778,0.349,0.778,0.779V7.828z"/>
		<path d="M25.794,4.279l-0.857-1.723L24.08,4.279l-1.395-0.696l1.559-3.117c0.229-0.385,0.728-0.511,1.113-0.282
		c0.116,0.069,0.212,0.166,0.281,0.282l1.559,3.117L25.794,4.279z"/>
		<path d="M48.315,46.013h-1.559V32.765h-10.91v-1.559h11.689c0.431,0,0.779,0.349,0.779,0.779V46.013z"/>
		<path d="M46.985,32.536l-5.227-5.227h-5.912v-1.559h6.234c0.207,0,0.405,0.082,0.551,0.229l5.455,5.455L46.985,32.536z"/>
		<path d="M3.117,46.013H1.559V31.985c0-0.431,0.349-0.779,0.779-0.779h11.689v1.559H3.117V46.013z"/>
		<path d="M2.889,32.536l-1.102-1.102l5.455-5.455c0.146-0.146,0.344-0.229,0.551-0.229h6.234v1.559H8.116L2.889,32.536z"/>
		<path d="M10.91,40.558H6.234c-0.431,0-0.779-0.349-0.779-0.779v-4.676c0-0.431,0.349-0.779,0.779-0.779h4.676
		c0.43,0,0.779,0.349,0.779,0.779v4.676C11.689,40.209,11.34,40.558,10.91,40.558z M7.014,38.999h3.117v-3.117H7.014V38.999z"/>
		<path d="M43.64,40.558h-4.676c-0.431,0-0.779-0.349-0.779-0.779v-4.676c0-0.431,0.349-0.779,0.779-0.779h4.676
		c0.431,0,0.779,0.349,0.779,0.779v4.676C44.419,40.209,44.07,40.558,43.64,40.558z M39.743,38.999h3.117v-3.117h-3.117V38.999z"/>
		<path d="M20.261,46.792h-3.117c-0.43,0-0.779-0.349-0.779-0.779V31.985c0-0.431,0.349-0.779,0.779-0.779h3.117
		c0.431,0,0.779,0.349,0.779,0.779v14.027C21.041,46.443,20.692,46.792,20.261,46.792z M17.923,45.233h1.559V32.765h-1.559V45.233z"
		/>
		<path d="M26.496,46.792h-3.118c-0.431,0-0.779-0.349-0.779-0.779V31.985c0-0.431,0.349-0.779,0.779-0.779h3.118
		c0.43,0,0.778,0.349,0.778,0.779v14.027C27.274,46.443,26.926,46.792,26.496,46.792z M24.158,45.233h1.559V32.765h-1.559V45.233z"
		/>
		<path d="M32.729,46.792h-3.117c-0.43,0-0.779-0.349-0.779-0.779V31.985c0-0.431,0.35-0.779,0.779-0.779h3.117
		c0.431,0,0.779,0.349,0.779,0.779v14.027C33.509,46.443,33.16,46.792,32.729,46.792z M30.392,45.233h1.559V32.765h-1.559V45.233z"
		/>
		<rect x="17.144" y="34.323" width="3.117" height="1.559"/>
		<rect x="23.378" y="34.323" width="3.118" height="1.559"/>
		<rect x="29.612" y="34.323" width="3.117" height="1.559"/>
		<rect x="17.144" y="42.116" width="3.117" height="1.559"/>
		<rect x="23.378" y="42.116" width="3.118" height="1.559"/>
		<rect x="29.612" y="42.116" width="3.117" height="1.559"/>
		<rect x="17.144" y="13.283" width="13.248" height="1.559"/>
		<rect x="16.365" y="16.4" width="1.559" height="3.117"/>
		<rect x="31.95" y="16.4" width="1.559" height="3.117"/>
		<rect x="16.365" y="28.089" width="1.559" height="1.559"/>
		<rect x="19.482" y="28.089" width="14.027" height="1.559"/>
	</g>
	<g id="icon-public-affairs">
		<path d="M10.194,37.302c-0.309,0-0.617-0.065-0.91-0.195c-0.541-0.243-0.953-0.682-1.164-1.234L3.968,24.925
		c-0.211-0.552-0.189-1.153,0.049-1.694c0.244-0.542,0.682-0.953,1.234-1.164l14.396-5.462l5.728,15.089l-14.39,5.462
		C10.73,37.253,10.464,37.302,10.194,37.302z M18.71,18.705L5.835,23.594c-0.146,0.054-0.265,0.168-0.33,0.309
		c-0.065,0.146-0.07,0.303-0.016,0.455l4.152,10.947c0.054,0.146,0.168,0.266,0.309,0.33c0.146,0.065,0.303,0.071,0.455,0.017
		l12.875-4.889L18.71,18.705z"/>
		<path d="M4.877,36.728c-1.169,0-2.274-0.714-2.712-1.873l-1.976-5.214c-0.568-1.494,0.189-3.172,1.684-3.741l3.687-1.396
		l4.039,10.632L5.9,36.538C5.565,36.668,5.218,36.728,4.877,36.728z M4.606,26.599l-2.166,0.823
		c-0.655,0.248-0.991,0.984-0.742,1.646l1.976,5.214c0.249,0.654,0.985,0.99,1.646,0.741l2.166-0.823L4.606,26.599z"/>
		<path d="M42.099,35.142c-0.076,0-0.152-0.006-0.228-0.021l0,0L23.74,31.942l-5.484-14.434L29.711,3.102
		c0.298-0.374,0.774-0.563,1.251-0.487c0.471,0.076,0.871,0.395,1.039,0.845l11.337,29.879c0.168,0.449,0.087,0.953-0.217,1.321
		C42.872,34.969,42.488,35.142,42.099,35.142z M24.925,30.502l16.718,2.929L30.669,4.515L20.107,17.801L24.925,30.502z"/>
		<path d="M17.633,46.874c-0.401,0-0.785-0.223-0.975-0.602l-5.549-10.898l9.133-3.465l1.083,2.848
		c0.401,1.062,0.244,2.242-0.422,3.162l-0.552,0.764l2.593,4.942c0.146,0.276,0.167,0.606,0.054,0.899
		c-0.114,0.292-0.341,0.524-0.639,0.639l-4.336,1.646C17.898,46.852,17.763,46.874,17.633,46.874z M13.377,36.246l4.51,8.868
		l3.34-1.267l-2.788-5.306l1.147-1.581c0.347-0.472,0.428-1.083,0.217-1.63L19.3,34.005L13.377,36.246z"/>
		<rect x="44.119" y="13.074" transform="matrix(-0.3554 -0.9347 0.9347 -0.3554 46.2762 63.1993)" width="1.624" height="5.138"/>
		<rect x="38.975" y="5.111" transform="matrix(-0.7217 -0.6922 0.6922 -0.7217 63.1819 40.7685)" width="1.624" height="5.143"/>
		<rect x="43.791" y="24.205" transform="matrix(-0.9967 -0.0809 0.0809 -0.9967 90.5446 53.7011)" width="5.138" height="1.624"/>
		<rect x="12.426" y="20.139" transform="matrix(-0.3543 -0.9351 0.9351 -0.3543 -4.8815 45.4125)" width="1.625" height="8.505"/>
	</g>
	<g id="icon-safety" transform="translate(0,-952.36218)">
		<path d="M21.998,955.363c-0.421,0.043-0.783,0.316-0.939,0.708l-0.903,2.267c-7.797,1.338-13.217,6.7-15.604,14.027H1.133
		c-0.626,0-1.133,0.507-1.133,1.133v5.668c0,0.625,0.507,1.133,1.133,1.133h3.401h5.101H40.24h5.101h3.4
		c0.626,0,1.134-0.508,1.134-1.133v-5.668c0-0.626-0.508-1.133-1.134-1.133h-3.418c-2.387-7.328-7.807-12.689-15.604-14.027
		l-0.903-2.267c-0.173-0.426-0.586-0.706-1.045-0.708h-5.668C22.068,955.362,22.033,955.362,21.998,955.363z M22.865,957.63h4.145
		l0.762,1.895v5.473c-0.009,0.626,0.491,1.14,1.117,1.149c0.626,0.009,1.141-0.492,1.149-1.117c0-0.011,0-0.021,0-0.032v-4.321
		c6.88,1.421,11.424,6.25,13.407,13.124c0.135,0.487,0.575,0.826,1.081,0.832h3.082v3.4h-2.268H40.24H9.635H4.534H2.267v-3.4h3.082
		c0.505-0.006,0.946-0.345,1.081-0.832c1.984-6.874,6.528-11.703,13.407-13.124v4.321c-0.009,0.626,0.492,1.14,1.118,1.149
		c0.626,0.009,1.141-0.492,1.149-1.117c0-0.011,0-0.021,0-0.032v-5.473L22.865,957.63z M5.562,982.567
		c-0.584,0.055-1.03,0.546-1.027,1.134v1.133H1.133c-0.626,0-1.133,0.508-1.133,1.134v5.667c0,0.627,0.507,1.134,1.133,1.134h3.401
		v1.7c0.002,0.3,0.124,0.587,0.336,0.797l2.834,2.834c0.211,0.213,0.497,0.334,0.797,0.337H20.97
		c0.431-0.004,0.821-0.251,1.009-0.638l2.834-5.668l0.124-0.248l0.124,0.248l2.834,5.668c0.188,0.387,0.579,0.634,1.01,0.638h12.469
		c0.3-0.003,0.586-0.124,0.797-0.337l2.833-2.834c0.214-0.21,0.335-0.497,0.337-0.797v-1.7h3.4c0.626,0,1.134-0.507,1.134-1.134
		v-5.667c0-0.626-0.508-1.134-1.134-1.134h-3.4v-1.133c0-0.626-0.508-1.134-1.134-1.134h-19.27H5.667
		C5.632,982.565,5.597,982.565,5.562,982.567L5.562,982.567z M6.801,984.834h18.136h18.137v1.134c0,0.626,0.507,1.133,1.133,1.133
		h3.401v3.4h-3.401c-0.626,0-1.133,0.508-1.133,1.134v2.355l-2.179,2.179H29.613l-2.533-5.048l-1.133-2.267
		c-0.285-0.558-0.968-0.778-1.525-0.494c-0.213,0.108-0.385,0.281-0.494,0.494l-1.133,2.267l-2.533,5.048H8.979l-2.178-2.179v-2.355
		c0-0.626-0.508-1.134-1.134-1.134h-3.4v-3.4h3.4c0.626,0,1.134-0.507,1.134-1.133V984.834z"/>
	</g>
	<g id="icon-technology">
		<path d="M21.927,48.938c0.336,0,0.609-0.272,0.609-0.609v-1.851h3.039c1.382-0.002,2.503-1.122,2.505-2.505v-6.158
		c0.016-2.286,0.979-4.463,2.658-6.014c2.711-2.527,4.207-6.096,4.111-9.801c-0.005-0.213-0.016-0.428-0.031-0.639
		c-0.025-0.336-0.318-0.587-0.654-0.562c-0.002,0-0.006,0-0.009,0.001l-1.093,0.099l-0.589-1.242
		c-0.078-0.165-0.227-0.287-0.404-0.33c-0.314-0.079-0.624-0.173-0.929-0.284c-0.172-0.063-0.363-0.044-0.521,0.049l-1.177,0.701
		l-3.313-2.735l0.471-1.286c0.064-0.174,0.045-0.367-0.051-0.526c-0.168-0.277-0.32-0.564-0.455-0.858
		c-0.076-0.168-0.225-0.292-0.404-0.337l-1.335-0.339l-0.333-3.654c-0.025-0.286-0.248-0.515-0.533-0.55
		c-0.479-0.058-0.96-0.089-1.443-0.094c-0.041,0-0.082,0-0.122,0C14.787,9.414,9,15.202,9,22.341c0,3.62,1.519,7.074,4.185,9.522
		c1.657,1.538,2.596,3.699,2.59,5.96v6.149c0.002,1.383,1.122,2.503,2.504,2.505h3.039v1.851
		C21.318,48.664,21.591,48.938,21.927,48.938z M14.009,30.966c-4.764-4.373-5.081-11.779-0.708-16.543
		c2.217-2.415,5.346-3.79,8.625-3.791c0.037,0,0.074,0,0.11,0c0.272,0.002,0.547,0.015,0.819,0.036l0.325,3.583
		c0.023,0.257,0.207,0.472,0.457,0.536l1.476,0.375c0.077,0.155,0.159,0.309,0.244,0.46l-0.521,1.42
		c-0.089,0.243-0.015,0.515,0.184,0.679l3.976,3.284c0.198,0.165,0.479,0.186,0.699,0.054L31,20.284
		c0.164,0.054,0.328,0.104,0.494,0.151l0.649,1.371c0.11,0.23,0.352,0.368,0.606,0.345l0.883-0.08
		c0.074,3.342-1.281,6.558-3.726,8.837c-1.771,1.643-2.853,3.896-3.024,6.306h-1.992v-3.59c0.001-0.676,0.548-1.224,1.224-1.225
		c1.35-0.001,2.443-1.095,2.444-2.444v-0.322c1.292-0.337,2.067-1.657,1.731-2.949c-0.338-1.293-1.658-2.068-2.95-1.731
		c-1.292,0.336-2.067,1.657-1.731,2.95c0.221,0.848,0.882,1.51,1.731,1.73v0.322c-0.001,0.677-0.549,1.225-1.226,1.226
		c-1.348,0.002-2.441,1.095-2.443,2.443v3.59h-1.094v-13.34c1.292-0.336,2.066-1.657,1.73-2.95c-0.337-1.292-1.658-2.067-2.949-1.73
		c-1.293,0.336-2.068,1.657-1.731,2.949c0.221,0.848,0.883,1.51,1.731,1.731v13.34h-1.095v-3.59
		c-0.001-1.349-1.095-2.441-2.444-2.443c-0.676-0.001-1.224-0.549-1.225-1.226v-0.322c1.293-0.337,2.068-1.657,1.731-2.949
		c-0.337-1.293-1.657-2.068-2.95-1.731c-1.292,0.336-2.067,1.657-1.73,2.95c0.221,0.848,0.883,1.51,1.73,1.73v0.322
		c0.001,1.35,1.095,2.443,2.444,2.444c0.676,0.001,1.224,0.549,1.225,1.225v3.59h-2.073C16.825,34.828,15.763,32.591,14.009,30.966z
		 M27.107,28.146c-0.465-0.465-0.465-1.22,0-1.685c0.466-0.465,1.22-0.465,1.686,0c0.465,0.465,0.465,1.22,0,1.685l0,0
		C28.326,28.611,27.573,28.611,27.107,28.146z M21.125,22.388c-0.466-0.466-0.466-1.22,0-1.686s1.22-0.466,1.686,0
		c0.465,0.465,0.465,1.22,0,1.686l0,0C22.345,22.852,21.592,22.852,21.125,22.388L21.125,22.388z M15.144,28.146
		c-0.466-0.465-0.466-1.22,0-1.685c0.466-0.465,1.22-0.465,1.686,0c0.465,0.465,0.465,1.22,0,1.685l0,0
		C16.363,28.61,15.61,28.61,15.144,28.146L15.144,28.146z M16.992,43.973v-0.205h6.497c0.336,0,0.609-0.272,0.609-0.609
		c0-0.336-0.273-0.609-0.609-0.609h-6.496v-1.491h1.569c0.336,0,0.609-0.272,0.609-0.609s-0.273-0.609-0.609-0.609h-1.569v-1.406
		h9.868v1.406h-6.338c-0.337,0-0.609,0.272-0.609,0.609s0.272,0.609,0.609,0.609h6.338v1.491h-1.411
		c-0.336,0-0.609,0.273-0.609,0.609c0,0.337,0.273,0.609,0.609,0.609h1.411v0.205c-0.001,0.71-0.576,1.286-1.286,1.286h-7.296
		c-0.71,0-1.285-0.576-1.286-1.286H16.992z"/>
		<path d="M36.048,5.218c-2.985-0.996-6.212,0.617-7.208,3.602c-0.996,2.984,0.617,6.211,3.602,7.207
		c2.985,0.995,6.212-0.617,7.208-3.602c0,0,0-0.001,0-0.001C40.642,9.44,39.029,6.216,36.048,5.218z M38.493,12.039
		c-0.782,2.347-3.318,3.615-5.665,2.833c-2.348-0.783-3.615-3.319-2.833-5.666c0.782-2.346,3.318-3.615,5.665-2.833
		c0.001,0,0.001,0,0.002,0c2.336,0.762,3.611,3.273,2.85,5.609C38.506,12.002,38.499,12.021,38.493,12.039z"/>
		<path d="M43.52,11.634c0.23-0.109,0.369-0.351,0.346-0.606l-0.236-2.601c-0.023-0.257-0.206-0.472-0.457-0.536l-1.095-0.278
		c-0.236-0.631-0.554-1.229-0.943-1.778l0.387-1.056c0.089-0.243,0.016-0.515-0.184-0.68l-2.014-1.662
		c-0.198-0.164-0.479-0.186-0.699-0.054l-0.962,0.572c-0.615-0.27-1.26-0.466-1.921-0.586l-0.484-1.021
		c-0.109-0.23-0.353-0.369-0.606-0.346l-2.6,0.236c-0.258,0.023-0.473,0.207-0.536,0.457l-0.278,1.095
		c-0.631,0.236-1.229,0.553-1.778,0.943l-1.056-0.387c-0.243-0.089-0.516-0.015-0.68,0.184l-1.662,2.013
		c-0.164,0.199-0.186,0.479-0.055,0.7l0.572,0.961c-0.27,0.616-0.466,1.261-0.586,1.922l-1.021,0.484
		c-0.23,0.109-0.369,0.351-0.346,0.606l0.236,2.601c0.023,0.257,0.207,0.472,0.457,0.536l1.096,0.278
		c0.235,0.631,0.553,1.229,0.943,1.778l-0.388,1.056c-0.089,0.243-0.015,0.515,0.185,0.68l2.014,1.663
		c0.197,0.164,0.478,0.185,0.699,0.054l0.961-0.572c0.615,0.27,1.261,0.466,1.922,0.585l0.483,1.022
		c0.101,0.212,0.315,0.348,0.55,0.348c0.02,0,0.037-0.001,0.057-0.003l2.601-0.236c0.257-0.023,0.472-0.207,0.535-0.457l0.278-1.095
		c0.631-0.237,1.229-0.554,1.778-0.943l1.057,0.387c0.242,0.089,0.515,0.015,0.68-0.184l1.661-2.013
		c0.164-0.199,0.186-0.479,0.054-0.7l-0.571-0.961c0.269-0.615,0.466-1.26,0.586-1.921L43.52,11.634z M41.687,11.154
		c-0.185,0.088-0.313,0.263-0.343,0.465c-0.107,0.761-0.333,1.5-0.668,2.191c-0.09,0.185-0.08,0.402,0.025,0.578l0.516,0.867
		l-1.114,1.35l-0.96-0.351c-0.197-0.072-0.418-0.038-0.583,0.091c-0.602,0.468-1.28,0.828-2.005,1.063
		c-0.198,0.065-0.351,0.226-0.401,0.429L35.9,18.832l-1.748,0.158l-0.438-0.927c-0.088-0.185-0.263-0.313-0.466-0.342
		c-0.76-0.107-1.5-0.333-2.191-0.668c-0.184-0.09-0.4-0.081-0.577,0.024l-0.868,0.517l-1.35-1.114l0.353-0.959
		c0.072-0.198,0.038-0.418-0.091-0.584c-0.469-0.602-0.828-1.28-1.064-2.004c-0.064-0.199-0.227-0.351-0.43-0.402l-0.994-0.252
		l-0.158-1.748l0.926-0.439c0.186-0.087,0.314-0.262,0.343-0.465c0.108-0.761,0.335-1.5,0.669-2.191
		c0.09-0.185,0.08-0.401-0.024-0.578l-0.517-0.868l1.114-1.35l0.96,0.352c0.197,0.072,0.418,0.038,0.584-0.091
		c0.602-0.468,1.279-0.828,2.004-1.063c0.199-0.064,0.35-0.227,0.402-0.429l0.252-0.994l1.748-0.159l0.439,0.927
		c0.087,0.185,0.262,0.313,0.465,0.342c0.761,0.108,1.5,0.333,2.19,0.668c0.185,0.09,0.401,0.08,0.578-0.024l0.867-0.517l1.35,1.115
		l-0.352,0.959c-0.072,0.198-0.037,0.418,0.092,0.584c0.468,0.602,0.828,1.279,1.063,2.004c0.064,0.199,0.227,0.351,0.429,0.402
		l0.994,0.252l0.159,1.748L41.687,11.154z"/>
	</g>
</svg>